<?xml version="1.0" encoding="utf-8"?>
<!-- Generator: Adobe Illustrator 24.1.2, SVG Export Plug-In . SVG Version: 6.00 Build 0)  -->
<svg version="1.1" id="Capa_1" xmlns="http://www.w3.org/2000/svg" xmlns:xlink="http://www.w3.org/1999/xlink" x="0px" y="0px"
	 viewBox="0 0 57 57" style="enable-background:new 0 0 57 57;" xml:space="preserve">
<style type="text/css">
	.st0{fill:#B3B3B3;}
</style>
<g>
	<path class="st0" d="M44.1,21.5L28.5,37.2L12.9,21.5c0,0-0.1-0.1-0.1-0.1c-0.8-0.8-2.2-0.7-2.9,0.1c-0.8,0.8-0.7,2.2,0.1,2.9
		l17,17.1c0.4,0.4,0.9,0.6,1.5,0.6c0.6,0,1.1-0.2,1.5-0.6l17-17.1c0.6-0.7,0.6-1.8,0-2.5C46.3,21,45,20.8,44.1,21.5z"/>
	<path class="st0" d="M28.5,0C12.7,0,0,12.8,0,28.5C0,44.2,12.8,57,28.5,57C44.2,57,57,44.2,57,28.5c0,0,0,0,0,0
		C57,12.7,44.2,0,28.5,0z M28.5,52.9C15,52.9,4.1,42,4.1,28.5S15,4.1,28.5,4.1v0C42,4.1,52.9,15,52.9,28.5
		C52.9,42,42,52.9,28.5,52.9z"/>
</g>
</svg>
