<?xml version="1.0" encoding="utf-8"?>
<!-- Generator: Adobe Illustrator 24.1.2, SVG Export Plug-In . SVG Version: 6.00 Build 0)  -->
<svg version="1.1" id="Capa_1" xmlns="http://www.w3.org/2000/svg" xmlns:xlink="http://www.w3.org/1999/xlink" x="0px" y="0px"
	 viewBox="0 0 47.5 54.3" style="enable-background:new 0 0 47.5 54.3;" xml:space="preserve">
<style type="text/css">
	.st0{fill:#122E5C;}
</style>
<g>
	<path class="st0" d="M47.5,5.1v3.4c0,0.9-0.8,1.7-1.7,1.7H1.7C0.8,10.2,0,9.4,0,8.5V5.1c0-0.9,0.8-1.7,1.7-1.7h12.7l1-2
		C15.8,0.6,16.8,0,17.7,0h0h12.1h0c0.9,0,1.9,0.6,2.3,1.4l1,2h12.7C46.7,3.4,47.5,4.2,47.5,5.1z M3.4,13.6h40.7v35.6
		c0,2.8-2.3,5.1-5.1,5.1H8.5c-2.8,0-5.1-2.3-5.1-5.1V13.6z M11.9,45.8c0,0.9,0.8,1.7,1.7,1.7s1.7-0.8,1.7-1.7V22.1
		c0-0.9-0.8-1.7-1.7-1.7s-1.7,0.8-1.7,1.7V45.8z M22.1,45.8c0,0.9,0.8,1.7,1.7,1.7s1.7-0.8,1.7-1.7V22.1c0-0.9-0.8-1.7-1.7-1.7
		s-1.7,0.8-1.7,1.7V45.8z M32.2,45.8c0,0.9,0.8,1.7,1.7,1.7c0.9,0,1.7-0.8,1.7-1.7V22.1c0-0.9-0.8-1.7-1.7-1.7
		c-0.9,0-1.7,0.8-1.7,1.7V45.8z"/>
</g>
</svg>
