<?xml version="1.0" encoding="utf-8"?>
<!-- Generator: Adobe Illustrator 24.1.2, SVG Export Plug-In . SVG Version: 6.00 Build 0)  -->
<svg version="1.1" id="Capa_1" xmlns="http://www.w3.org/2000/svg" xmlns:xlink="http://www.w3.org/1999/xlink" x="0px" y="0px"
	 viewBox="0 0 50.3 62" style="enable-background:new 0 0 50.3 62;" xml:space="preserve">
<style type="text/css">
	.st0{fill:#FFFFFF;}
</style>
<g>
	<path class="st0" d="M24.3,24.9v0.9c0,1.1,0.2,2.2,0.8,3.2c0.8,1.4,2.3,2.2,3.8,2.2c1.5,0,2.9-0.7,3.9-1.8l8.8-8.8c0,0,0,0,0,0
		c2.7-2.7,2.7-7.2,0-9.9l-8.8-8.8c-1-1.1-2.4-1.8-3.9-1.8c-2.3,0-4.6,1.8-4.6,5.4v0.5C11.6,7.5,1.6,17.6,0,30.3c0,0.2,0,0.3,0,0.5
		c0,2,1.6,3.6,3.6,3.6c1.2,0,2.2-0.6,2.9-1.5C10.6,27.3,17.4,24.2,24.3,24.9z M4.5,28.8c2.2-10.6,11.2-18.4,22-19
		c1.1-0.1,1.9-1,1.9-2.1V5.4c0-0.6,0.2-1.2,0.5-1.2c0.4,0.1,0.8,0.3,1,0.6l8.8,8.7c0,0,0,0,0,0c1.1,1.1,1.1,2.9,0,4.1l-8.8,8.8
		c-0.3,0.3-0.6,0.5-1,0.6c-0.1,0-0.2,0-0.3-0.2c-0.2-0.3-0.2-0.7-0.2-1V23c0-1-0.7-1.8-1.7-2C18.4,19.5,10,22.5,4.5,28.8z"/>
	<path class="st0" d="M48.8,28.3c-1.6-1.2-3.9-0.8-5,0.8c-4.1,5.6-10.9,8.6-17.8,8v-0.9c0-3.5-2.3-5.4-4.6-5.4
		c-1.5,0-2.9,0.7-3.9,1.8l-8.8,8.8c0,0,0,0,0,0c-2.7,2.7-2.7,7.2,0,9.9l8.8,8.8c1,1.1,2.4,1.8,3.9,1.8c2.3,0,4.6-1.9,4.6-5.4v-0.5
		c12.7-1.6,22.7-11.7,24.3-24.4C50.5,30.4,49.9,29.1,48.8,28.3z M23.8,52.1c-1.1,0.1-1.9,1-1.9,2.1v2.4c0,0.6-0.2,1.2-0.5,1.2
		c-0.4-0.1-0.7-0.3-1-0.6l-8.8-8.8c0,0,0,0,0,0c-1.1-1.1-1.1-2.9,0-4.1l8.8-8.8c0.3-0.3,0.6-0.5,1-0.6c0.3,0,0.5,0.7,0.5,1.3V39
		c0,1,0.7,1.8,1.7,2c8.3,1.4,16.7-1.6,22.2-7.9C43.6,43.7,34.6,51.5,23.8,52.1z"/>
</g>
</svg>
