<?xml version="1.0" encoding="utf-8"?>
<!-- Generator: Adobe Illustrator 24.1.2, SVG Export Plug-In . SVG Version: 6.00 Build 0)  -->
<svg version="1.1" id="Capa_1" xmlns="http://www.w3.org/2000/svg" xmlns:xlink="http://www.w3.org/1999/xlink" x="0px" y="0px"
	 viewBox="0 0 52.3 52.3" style="enable-background:new 0 0 52.3 52.3;" xml:space="preserve">
<style type="text/css">
	.st0{fill:#FFA142;}
</style>
<g>
	<path class="st0" d="M48.2,4.2c-5.6-5.6-14.5-5.6-20.1,0L4.2,28.1c-2.7,2.7-4.2,6.3-4.2,10c0,7.8,6.3,14.2,14.2,14.3
		c3.8,0,7.4-1.5,10.1-4.2l23.9-23.9C53.8,18.7,53.8,9.7,48.2,4.2z M21.3,45.2c-3.9,3.7-10,3.7-13.9,0C3.4,41.4,3.3,35,7.1,31
		l10.5-10.5l14.2,14.3L21.3,45.2z M45.2,21.3L34.7,31.8L20.5,17.6L31,7.1c1.9-1.9,4.4-3,7.1-3c2.7,0,5.2,1.1,7.1,3
		C49.2,11,49.2,17.4,45.2,21.3z"/>
	<path class="st0" d="M42.9,8.5c-2.9-2.8-7.5-2.8-10.3,0L32,9.1c-0.8,0.8-0.8,2.1,0,2.9s2.1,0.8,2.9,0l0.6-0.6
		c1.2-1.2,3.2-1.2,4.5,0c0.2,0.2,0.4,0.4,0.5,0.7c0.4,0.6,1.1,1,1.8,1c0.4,0,0.7-0.1,1-0.3c1-0.6,1.3-1.8,0.8-2.8
		C43.7,9.5,43.3,9,42.9,8.5z"/>
</g>
</svg>
