<?xml version="1.0" encoding="utf-8"?>
<!-- Generator: Adobe Illustrator 24.1.2, SVG Export Plug-In . SVG Version: 6.00 Build 0)  -->
<svg version="1.1" id="Capa_1" xmlns="http://www.w3.org/2000/svg" xmlns:xlink="http://www.w3.org/1999/xlink" x="0px" y="0px"
	 viewBox="0 0 35 57.2" style="enable-background:new 0 0 35 57.2;" xml:space="preserve">
<style type="text/css">
	.st0{fill:#5B98B4;}
</style>
<g>
	<path class="st0" d="M16,26.4c-4-0.1-7.4,3-7.6,7v6.3c0,4,3.3,7.3,7.3,7.3c4,0,7.3-3.3,7.3-7.3v-6.3C22.8,29.6,19.8,26.6,16,26.4z
		 M18.8,39.7c-0.1,1.6-1.4,2.9-3,3c-1.7,0.1-3.2-1.2-3.3-3v-6.3c0-1.7,1.4-3.2,3.2-3.2v0c1.7,0,3.2,1.4,3.2,3.2V39.7z"/>
	<path class="st0" d="M34.8,4.9C34.7,4.7,32,0,27.2,0h-8.1h-6.9c0,0,0,0,0,0H8.7c-1,0.1-1.8,0.9-1.9,1.9C6.7,3.1,7.6,4.1,8.7,4.1
		h1.5v5.6c-2.6,0.6-4.5,3-4.5,5.7v1.1C2.4,17.9,0,21.1,0,24.9v23.4c0,5,4,9,9,9h13.4c5,0,9-4,9-9V24.9c0-3.8-2.4-7-5.7-8.4v-1.1
		c0-2.8-1.9-5.1-4.5-5.7V4.1h6c2.4,0,3.9,2.8,3.9,2.8C31.5,7.6,32.2,8,33,8c0.3,0,0.7-0.1,1-0.3C35,7.2,35.3,5.9,34.8,4.9z
		 M17.1,9.5h-2.8V4.1h2.8V9.5z M27.2,24.9v23.4c0,2.7-2.2,4.8-4.8,4.8H9c-2.7,0-4.8-2.2-4.8-4.8V24.9c0-2.2,1.5-4,3.4-4.6
		c0.1,0,0.1,0,0.2,0c0.3,0,0.5-0.1,0.7-0.2c0.2,0,0.3,0,0.5,0h13.4C25.1,20.1,27.2,22.2,27.2,24.9z M21.6,15.9H9.8v-0.4
		c0-1,0.8-1.8,1.8-1.8h0.6c0,0,0.1,0,0.1,0h6.9c0,0,0,0,0,0c0,0,0.1,0,0.1,0h0.6c1,0,1.8,0.8,1.8,1.8V15.9z"/>
</g>
</svg>
