<?xml version="1.0" encoding="utf-8"?>
<!-- Generator: Adobe Illustrator 24.1.2, SVG Export Plug-In . SVG Version: 6.00 Build 0)  -->
<svg version="1.1" id="Capa_1" xmlns="http://www.w3.org/2000/svg" xmlns:xlink="http://www.w3.org/1999/xlink" x="0px" y="0px"
	 viewBox="0 0 59.2 59.2" style="enable-background:new 0 0 59.2 59.2;" xml:space="preserve">
<style type="text/css">
	.st0{fill:#C09057;}
</style>
<g id="Layer_2">
	<g id="Layer_1-2">
		<path class="st0" d="M19.2,59.2c-5.2,0-9.6-3.7-10.4-8.8c-2.2-0.4-4.1-1.4-5.7-3c-2-2-3.1-4.6-3.1-7.4c0-5.9,4.7-10.6,10.6-10.6
			c0,0,0,0,0,0c1.5,0,3,0.3,4.4,1L30.4,15c-1.8-4-1-8.8,2.1-11.9c2-2,4.7-3.1,7.5-3.1c5.1,0,9.5,3.7,10.4,8.8
			c5.7,1.1,9.5,6.6,8.5,12.4c-0.9,5-5.2,8.6-10.3,8.6c-1.5,0-3-0.3-4.4-1L28.9,44.2c0.7,1.4,1,2.9,1,4.4
			C29.9,54.5,25.1,59.2,19.2,59.2C19.2,59.2,19.2,59.2,19.2,59.2z M10.7,46.4c1.1,0,2.1,0.9,2.1,2.1c0,0,0,0,0,0v0.1
			c0,3.6,2.9,6.5,6.5,6.5s6.5-2.9,6.5-6.5c0-1.3-0.4-2.6-1.1-3.7c-0.6-0.8-0.5-1.9,0.3-2.6l17.5-17.5c0.7-0.7,1.8-0.8,2.6-0.3
			c3,2,7,1.2,9-1.8s1.2-7-1.8-9c-1.1-0.7-2.3-1.1-3.6-1.1h-0.1c-0.6,0-1.1-0.2-1.5-0.6c-0.4-0.4-0.6-0.9-0.6-1.5v-0.1
			c0-3.6-2.9-6.4-6.4-6.5c-3.6,0-6.5,2.9-6.5,6.5c0,1.3,0.4,2.6,1.1,3.6c0.6,0.8,0.5,1.9-0.3,2.6L16.8,34.4
			c-0.7,0.7-1.8,0.8-2.6,0.3c-3-2-7-1.2-9,1.8s-1.2,7,1.8,9c1.1,0.7,2.3,1.1,3.6,1.1H10.7z"/>
	</g>
</g>
</svg>
