<?xml version="1.0" encoding="utf-8"?>
<!-- Generator: Adobe Illustrator 24.1.2, SVG Export Plug-In . SVG Version: 6.00 Build 0)  -->
<svg version="1.1" id="Capa_1" xmlns="http://www.w3.org/2000/svg" xmlns:xlink="http://www.w3.org/1999/xlink" x="0px" y="0px"
	 viewBox="0 0 46.3 60.6" style="enable-background:new 0 0 46.3 60.6;" xml:space="preserve">
<style type="text/css">
	.st0{fill:#B43B40;}
</style>
<g>
	<path class="st0" d="M44.7,16L30.3,1.6c-1-1-2.4-1.6-3.9-1.6H5.5C2.5,0,0,2.5,0,5.5v49.6c0,3,2.5,5.5,5.5,5.5h35.3
		c3,0,5.5-2.5,5.5-5.5V19.9C46.3,18.4,45.7,17,44.7,16z M31,8.1l7.1,7.1H33c-1.1,0-2.1-0.9-2.1-2.1V8.1z M42.2,55.1
		c0,0.8-0.6,1.4-1.4,1.4H5.5c-0.8,0-1.4-0.6-1.4-1.4V5.5c0-0.8,0.6-1.4,1.4-1.4h20.8c0.2,0,0.3,0,0.5,0.1v9c0,3.4,2.8,6.2,6.2,6.2h9
		c0.1,0.2,0.1,0.3,0.1,0.5V55.1z"/>
	<path class="st0" d="M24.5,27.3h12.4c0.1,0,0.2,0,0.3,0c1.1-0.1,2-1.1,1.9-2.2c-0.1-1.1-1.1-2-2.2-1.9H24.5c-0.1,0-0.2,0-0.3,0
		c-1.1,0.1-2,1.1-1.9,2.2C22.4,26.5,23.4,27.3,24.5,27.3z"/>
	<path class="st0" d="M10.8,28.6c0.4,0.4,0.9,0.6,1.5,0.6c0.5,0,1-0.2,1.4-0.6l5-5c0.8-0.8,0.8-2.1,0-2.9s-2.1-0.8-2.9,0l-3.5,3.5
		l-0.7-0.8c-0.8-0.8-2.1-0.8-2.9,0s-0.8,2.1,0,2.9L10.8,28.6z"/>
	<path class="st0" d="M37,35.2H24.7c-0.1,0-0.2,0-0.3,0c-1.1,0.1-2,1.1-1.9,2.2s1.1,2,2.2,1.9H37c0.1,0,0.2,0,0.3,0
		c1.1-0.1,2-1.1,1.9-2.2C39.1,36,38.1,35.2,37,35.2z"/>
	<path class="st0" d="M10.9,40.7c0.4,0.4,0.9,0.6,1.5,0.6c0.5,0,1-0.2,1.4-0.6l5-5c0.8-0.8,0.8-2.1,0-2.9s-2.1-0.8-2.9,0l-3.5,3.5
		l-0.7-0.7c-0.8-0.8-2.1-0.8-2.9,0s-0.8,2.1,0,2.9L10.9,40.7z"/>
	<path class="st0" d="M37.2,47.4H24.8c-0.1,0-0.2,0-0.3,0c-1.1,0.1-2,1.1-1.9,2.2c0.1,1.1,1.1,2,2.2,1.9h12.4c1-0.1,1.8-0.9,1.9-1.9
		C39.2,48.4,38.3,47.4,37.2,47.4z"/>
	<path class="st0" d="M16,44.9l-3.5,3.5l-0.7-0.7c-0.8-0.8-2.1-0.8-2.9,0s-0.8,2.1,0,2.9l2.2,2.2c0.4,0.4,0.9,0.6,1.5,0.6
		c0.5,0,1.1-0.2,1.5-0.6l5-5c0.8-0.8,0.8-2.1,0-2.9C18.2,44.1,16.8,44.1,16,44.9z"/>
</g>
</svg>
