<?xml version="1.0" encoding="utf-8"?>
<!-- Generator: Adobe Illustrator 24.1.2, SVG Export Plug-In . SVG Version: 6.00 Build 0)  -->
<svg version="1.1" id="Capa_1" xmlns="http://www.w3.org/2000/svg" xmlns:xlink="http://www.w3.org/1999/xlink" x="0px" y="0px"
	 viewBox="0 0 57.8 57.8" style="enable-background:new 0 0 57.8 57.8;" xml:space="preserve">
<style type="text/css">
	.st0{fill:#9C61CB;}
</style>
<path class="st0" d="M57.7,26.8c0-0.2,0-0.3,0-0.5c0-0.6-0.1-1.3-0.2-1.9c0-0.3-0.1-0.5-0.1-0.8c-0.1-0.4-0.2-0.8-0.3-1.3
	c-0.1-0.4-0.2-0.9-0.4-1.4s-0.2-0.6-0.3-0.9c-0.2-0.5-0.3-1-0.5-1.5c-0.1-0.3-0.2-0.6-0.3-0.9c-0.1-0.3-0.3-0.7-0.5-1.1
	c-0.2-0.4-0.2-0.5-0.3-0.7c-0.3-0.5-0.5-1-0.8-1.5c-0.2-0.3-0.3-0.5-0.5-0.8s-0.4-0.7-0.7-1s-0.5-0.8-0.8-1.1
	c-0.1-0.1-0.2-0.3-0.3-0.4l-0.2-0.2C49.9,8.8,48,7.1,46,5.6l-0.3-0.2l-0.4-0.3c-0.3-0.2-0.6-0.4-0.9-0.6c-0.3-0.2-0.8-0.5-1.2-0.7
	l-0.9-0.5c-0.3-0.2-0.6-0.3-0.8-0.4c-0.5-0.2-0.9-0.4-1.4-0.6c-0.3-0.1-0.6-0.2-0.8-0.3c-0.3-0.1-0.7-0.3-1-0.4l-0.8-0.3
	c-0.5-0.2-1-0.3-1.6-0.5l-0.7-0.2c-0.5-0.1-1-0.2-1.5-0.3l-0.4-0.1c-0.6-0.1-1.3-0.2-1.9-0.2h-0.5c-0.7,0-1.3-0.1-2-0.1
	c-0.7,0-1.3,0-2,0.1h-0.5c-0.6,0.1-1.3,0.1-1.9,0.2l-0.4,0.1c-0.5,0.1-1,0.2-1.5,0.3l-0.7,0.2c-0.5,0.1-1.1,0.3-1.6,0.5
	c-0.3,0.1-0.5,0.2-0.8,0.3s-0.7,0.2-1,0.4c-0.3,0.1-0.6,0.2-0.8,0.3c-0.5,0.2-1,0.4-1.4,0.6C16,3,15.7,3.2,15.4,3.3l-0.9,0.5
	c-0.4,0.2-0.8,0.5-1.2,0.7l-0.9,0.6l-0.4,0.3c-0.1,0.1-0.2,0.1-0.3,0.2c-2,1.5-3.8,3.2-5.4,5.1L6.2,11c-0.1,0.1-0.2,0.3-0.3,0.4
	c-0.3,0.4-0.6,0.8-0.8,1.2c-0.3,0.4-0.4,0.7-0.7,1l-0.5,0.8c-0.3,0.5-0.6,1-0.8,1.5c-0.1,0.2-0.2,0.5-0.3,0.7
	c-0.1,0.2-0.3,0.7-0.5,1.1C2.1,18,2,18.4,1.8,18.8s-0.3,0.9-0.5,1.3L1.1,21c-0.1,0.5-0.3,0.9-0.3,1.4c-0.1,0.4-0.2,0.8-0.3,1.3
	c0,0.3-0.1,0.5-0.1,0.8c-0.1,0.6-0.2,1.3-0.2,1.9c0,0.2,0,0.3,0,0.5C0,27.5,0,28.2,0,28.9c0,0.5,0,0.9,0,1.4c0,0.2,0,0.4,0,0.5
	c0,0.2,0,0.6,0.1,0.8c0.1,0.3,0,0.4,0.1,0.7l0.1,0.7c0,0.2,0.1,0.5,0.1,0.7l0.1,0.7l0.1,0.7c0,0.2,0.1,0.4,0.2,0.7
	c0.1,0.2,0.1,0.5,0.2,0.7c0.1,0.2,0.1,0.5,0.2,0.7c0.1,0.2,0.1,0.4,0.2,0.6c0.1,0.2,0.2,0.5,0.3,0.8c0.1,0.3,0.1,0.3,0.2,0.5
	c0.1,0.3,0.3,0.7,0.4,1c0,0.1,0.1,0.2,0.1,0.3c1.2,2.9,2.9,5.6,5,7.9l0.1,0.1c1.7,1.9,3.6,3.5,5.8,4.9c0.1,0.1,0.2,0.2,0.4,0.2
	c0.1,0.1,0.2,0.1,0.3,0.2l0.7,0.4c0.5,0.3,0.9,0.5,1.4,0.7l0.8,0.4l0.8,0.3c0.4,0.2,0.8,0.3,1.2,0.5l0.7,0.3l1.4,0.5l0.6,0.2
	c0.5,0.1,0.9,0.2,1.4,0.3l0.4,0.1c0.6,0.1,1.2,0.2,1.8,0.3h0.4c0.5,0.1,0.9,0.1,1.4,0.2H27c0.6,0,1.2,0.1,1.8,0.1s1.2,0,1.8-0.1h0.5
	c0.5,0,1-0.1,1.5-0.2H33c0.6-0.1,1.2-0.2,1.8-0.3l0.4-0.1c0.5-0.1,0.9-0.2,1.4-0.3l0.6-0.2c0.5-0.1,0.9-0.3,1.4-0.5l0.7-0.3
	c0.4-0.1,0.8-0.3,1.2-0.5l0.8-0.3l0.8-0.4c0.5-0.2,0.9-0.5,1.4-0.8l0.8-0.4l0.4-0.2c0.1-0.1,0.2-0.2,0.3-0.2c2.1-1.4,4.1-3,5.8-4.9
	l0.1-0.1c2.1-2.4,3.8-5,5-7.9l0.1-0.2c0.1-0.3,0.3-0.7,0.4-1l0.2-0.5l0.3-0.8l0.2-0.6c0.1-0.2,0.1-0.5,0.2-0.7S57,36,57,35.8
	s0.1-0.4,0.2-0.7c0.1-0.2,0.1-0.5,0.1-0.7l0.1-0.7c0-0.2,0.1-0.5,0.1-0.7l0.1-0.7c0-0.2,0-0.4,0.1-0.7l0.1-0.8c0-0.2,0-0.4,0-0.5
	c0-0.5,0-0.9,0-1.4C57.8,28.2,57.8,27.5,57.7,26.8z M14.3,39c-0.1,0.3-0.2,0.6-0.3,0.9c-0.1,0.3-0.2,0.6-0.4,0.9s-0.2,0.6-0.4,0.9
	s-0.3,0.6-0.4,0.9c-0.1,0.3-0.3,0.6-0.4,0.9c-0.2,0.3-0.3,0.5-0.5,0.8c-0.2,0.3-0.4,0.7-0.5,1c-0.1,0.2-0.3,0.3-0.5,0.3
	c-0.2,0-0.3,0-0.5-0.2c-0.1-0.1-0.3-0.3-0.4-0.4c-0.3-0.4-0.6-0.7-0.9-1.1l-0.5-0.6c-0.3-0.4-0.6-0.8-0.8-1.2
	c-0.1-0.2-0.2-0.4-0.4-0.6C7.3,41,7,40.5,6.8,40l-0.2-0.3c-0.3-0.6-0.5-1.2-0.8-1.8l-0.1-0.3c-0.2-0.6-0.4-1.2-0.6-1.8
	c0-0.1-0.1-0.2-0.1-0.3c-0.2-0.6-0.3-1.3-0.5-1.9c0-0.1,0-0.2,0-0.3c-0.1-0.7-0.2-1.3-0.3-2c0-0.1,0-0.2,0-0.2
	c-0.1-0.7-0.1-1.4-0.1-2.1s0-1.2,0.1-1.8v-0.4c0-0.6,0.1-1.1,0.2-1.6l0.1-0.6c0.1-0.4,0.1-0.7,0.2-1.1c0.1-0.3,0.2-0.8,0.3-1.2
	c0.1-0.4,0.1-0.5,0.2-0.8c0.2-0.5,0.3-1,0.5-1.5c0.1-0.2,0.1-0.4,0.2-0.6s0.3-0.6,0.4-0.9l0.3-0.6c0.2-0.5,0.5-0.9,0.7-1.3l0.4-0.7
	l0.6-0.9c0.2-0.3,0.5-0.7,0.7-1c0.1-0.2,0.2-0.3,0.3-0.4c0.1-0.1,0.3-0.2,0.5-0.2c0.2,0,0.4,0.1,0.5,0.3c0.2,0.3,0.4,0.7,0.6,1
	s0.4,0.6,0.6,0.9s0.3,0.6,0.5,1c0.2,0.4,0.3,0.6,0.5,1c0.2,0.4,0.3,0.6,0.4,0.9s0.3,0.7,0.5,1.1c0.1,0.4,0.2,0.6,0.3,0.9
	s0.3,0.7,0.4,1.1s0.2,0.6,0.3,1c0.1,0.3,0.2,0.8,0.3,1.1s0.1,0.7,0.2,1s0.1,0.7,0.2,1.1s0.1,0.8,0.1,1.3c0,0.4,0.1,0.6,0.1,0.9
	c0,0.7,0.1,1.5,0.1,2.2s0,1.3-0.1,2c0,0.3-0.1,0.5-0.1,0.8c0,0.3-0.1,0.8-0.1,1.2c0,0.4-0.1,0.6-0.2,0.9s-0.1,0.7-0.2,1
	s-0.2,0.7-0.2,1c-0.1,0.3-0.1,0.6-0.2,0.9C14.5,38.2,14.4,38.6,14.3,39z M42.3,49.8l-0.5,0.3l-0.4,0.2C41,50.6,40.5,50.8,40,51
	l-0.6,0.3l-0.7,0.3L37.8,52l-0.7,0.3c-0.4,0.1-0.7,0.3-1.1,0.4l-0.5,0.1l-1.1,0.3L34,53.2c-0.5,0.1-1,0.2-1.5,0.3h-0.4
	c-0.4,0.1-0.8,0.1-1.2,0.1h-0.4c-0.5,0-1,0-1.6,0s-1,0-1.6,0h-0.4c-0.4,0-0.8-0.1-1.2-0.1h-0.4c-0.5-0.1-1-0.2-1.5-0.3l-0.3-0.1
	c-0.4-0.1-0.8-0.2-1.1-0.3l-0.5-0.1c-0.4-0.1-0.7-0.2-1.1-0.4L20,52l-0.9-0.4l-0.7-0.3L17.8,51c-0.5-0.2-0.9-0.5-1.3-0.7
	c-0.1-0.1-0.3-0.2-0.4-0.2l-0.5-0.3c-0.8-0.6-1-1.6-0.5-2.5c0.2-0.3,0.4-0.6,0.5-1c0.2-0.4,0.4-0.6,0.5-1c0.2-0.4,0.3-0.7,0.5-1
	c0.2-0.3,0.3-0.7,0.5-1c0.2-0.3,0.3-0.7,0.4-1c0.1-0.3,0.3-0.7,0.4-1.1c0.1-0.4,0.2-0.7,0.3-1c0.1-0.3,0.3-0.7,0.3-1.1
	s0.2-0.7,0.3-1.1c0.1-0.4,0.2-0.8,0.3-1.1c0.1-0.4,0.1-0.8,0.2-1.1s0.1-0.7,0.2-1.1c0.1-0.4,0.1-0.9,0.1-1.3s0.1-0.6,0.1-0.9
	c0-0.8,0.1-1.5,0.1-2.3c0-0.8,0-1.7-0.1-2.5c0-0.3-0.1-0.7-0.1-1c0-0.5-0.1-1-0.2-1.5c-0.1-0.5-0.1-0.8-0.2-1.2
	c-0.1-0.4-0.1-0.8-0.2-1.2c-0.1-0.4-0.2-0.9-0.3-1.3s-0.2-0.8-0.3-1.1s-0.3-0.8-0.4-1.2c-0.1-0.4-0.3-0.7-0.4-1.1
	c-0.1-0.4-0.3-0.8-0.5-1.2c-0.2-0.4-0.3-0.7-0.5-1.1c-0.2-0.4-0.4-0.7-0.6-1.1c-0.2-0.4-0.4-0.7-0.6-1.1c-0.2-0.4-0.4-0.7-0.6-1
	c-0.2-0.3-0.4-0.7-0.7-1c-0.5-0.8-0.4-1.8,0.3-2.5l0.5-0.3L15.6,8c0.3-0.2,0.7-0.4,1-0.6L17.3,7l0.7-0.4c0.4-0.2,0.8-0.4,1.2-0.5
	c0.2-0.1,0.5-0.2,0.7-0.3l0.8-0.3l0.7-0.2C22,5.1,22.4,5,22.9,4.9l0.6-0.1c0.4-0.1,0.8-0.2,1.3-0.3l0.3-0.1c0.5-0.1,1.1-0.1,1.6-0.2
	h0.5c0.6,0,1.1-0.1,1.7-0.1c0.6,0,1.1,0,1.7,0.1h0.5c0.5,0,1.1,0.1,1.6,0.2L33,4.5c0.4,0.1,0.8,0.2,1.3,0.3l0.6,0.1
	c0.5,0.1,0.9,0.2,1.4,0.4L37,5.5c0.3,0.1,0.5,0.2,0.8,0.3c0.3,0.1,0.5,0.2,0.7,0.3c0.4,0.2,0.8,0.4,1.2,0.5L40.5,7l0.7,0.4l1,0.6
	c0.3,0.2,0.5,0.3,0.7,0.5l0.5,0.4c0.7,0.6,0.9,1.7,0.3,2.5c-0.3,0.4-0.5,0.7-0.7,1.1c-0.2,0.4-0.4,0.6-0.6,1
	c-0.2,0.4-0.4,0.8-0.6,1.2s-0.4,0.7-0.6,1c-0.2,0.3-0.3,0.8-0.5,1.1c-0.2,0.4-0.3,0.8-0.5,1.1c-0.1,0.4-0.3,0.7-0.3,1.1
	c-0.1,0.4-0.3,0.8-0.4,1.2c-0.1,0.4-0.2,0.8-0.3,1.2c-0.1,0.4-0.2,0.8-0.3,1.2c-0.1,0.4-0.2,0.8-0.2,1.2c-0.1,0.4-0.2,0.8-0.2,1.2
	s-0.1,1-0.2,1.5c0,0.3-0.1,0.7-0.1,1C38,28.4,38,29.2,38,30.1s0,1.5,0.1,2.3c0,0.3,0.1,0.6,0.1,1c0,0.4,0.1,0.9,0.1,1.3
	c0.1,0.4,0.1,0.8,0.2,1.1s0.1,0.7,0.2,1.1c0.1,0.4,0.2,0.8,0.3,1.2c0.1,0.4,0.2,0.7,0.3,1c0.1,0.3,0.2,0.8,0.4,1.1s0.2,0.7,0.3,1
	s0.3,0.7,0.4,1.1s0.3,0.7,0.4,1c0.1,0.3,0.3,0.7,0.5,1c0.2,0.3,0.3,0.7,0.5,1s0.3,0.6,0.5,0.9c0.2,0.3,0.4,0.7,0.5,1
	C43.3,48.1,43.1,49.2,42.3,49.8z M53.6,31c0,0.1,0,0.2,0,0.2c-0.1,0.7-0.2,1.3-0.3,2c0,0.1,0,0.2,0,0.3c-0.1,0.7-0.3,1.3-0.4,1.9
	l-0.1,0.3c-0.2,0.6-0.4,1.2-0.6,1.8L52,37.9c-0.2,0.6-0.5,1.2-0.8,1.8L51.1,40c-0.2,0.5-0.5,1-0.8,1.4c-0.1,0.2-0.2,0.4-0.4,0.6
	c-0.3,0.4-0.5,0.8-0.8,1.2c-0.2,0.2-0.3,0.5-0.5,0.7c-0.3,0.4-0.6,0.7-0.9,1.1c-0.1,0.2-0.3,0.3-0.4,0.4c-0.1,0.1-0.3,0.2-0.5,0.2
	c-0.2,0-0.4-0.1-0.5-0.3c-0.2-0.3-0.4-0.6-0.5-1s-0.3-0.5-0.5-0.8c-0.1-0.3-0.3-0.6-0.4-0.9c-0.1-0.3-0.3-0.6-0.4-0.9
	s-0.2-0.6-0.4-0.9c-0.1-0.3-0.3-0.6-0.4-0.9s-0.2-0.6-0.3-0.9c-0.1-0.3-0.2-0.7-0.3-1c-0.1-0.3-0.2-0.6-0.2-0.9s-0.2-0.7-0.3-1
	c-0.1-0.3-0.1-0.7-0.2-1c0-0.4-0.1-0.7-0.2-1c0-0.4-0.1-0.8-0.1-1.1c0-0.4-0.1-0.6-0.1-0.8c0-0.7-0.1-1.3-0.1-2c0-0.8,0-1.5,0.1-2.2
	c0-0.3,0.1-0.6,0.1-0.9c0-0.3,0.1-0.8,0.1-1.3s0.1-0.7,0.2-1.1c0.1-0.4,0.1-0.7,0.2-1s0.2-0.8,0.3-1.1c0.1-0.4,0.2-0.7,0.3-1
	c0.1-0.3,0.3-0.7,0.4-1.1c0.1-0.4,0.2-0.6,0.3-1s0.3-0.7,0.5-1c0.2-0.3,0.3-0.7,0.4-1c0.1-0.4,0.3-0.6,0.5-0.9
	c0.2-0.3,0.3-0.7,0.5-1c0.2-0.3,0.4-0.6,0.5-0.9c0.2-0.3,0.4-0.7,0.7-1c0.1-0.2,0.3-0.3,0.5-0.3c0.2,0,0.3,0.1,0.5,0.2
	c0.1,0.2,0.2,0.3,0.3,0.4c0.2,0.3,0.5,0.6,0.7,1c0.2,0.4,0.4,0.6,0.6,0.9s0.3,0.5,0.4,0.7c0.3,0.4,0.5,0.9,0.7,1.3
	c0.1,0.2,0.2,0.4,0.3,0.6c0.1,0.2,0.3,0.6,0.4,0.9c0.1,0.1,0.1,0.3,0.2,0.4c0.2,0.5,0.4,1.1,0.6,1.6c0.1,0.3,0.1,0.5,0.2,0.8
	s0.2,0.8,0.3,1.2c0.1,0.4,0.2,0.7,0.2,1.1l0.1,0.6c0.1,0.6,0.1,1.1,0.2,1.6c0,0.2,0,0.3,0,0.5c0,0.6,0.1,1.2,0.1,1.8
	C53.7,29.5,53.7,30.3,53.6,31z"/>
</svg>
