<?xml version="1.0" encoding="utf-8"?>
<!-- Generator: Adobe Illustrator 24.1.2, SVG Export Plug-In . SVG Version: 6.00 Build 0)  -->
<svg version="1.1" id="Capa_1" xmlns="http://www.w3.org/2000/svg" xmlns:xlink="http://www.w3.org/1999/xlink" x="0px" y="0px"
	 viewBox="0 0 59.2 59.2" style="enable-background:new 0 0 59.2 59.2;" xml:space="preserve">
<style type="text/css">
	.st0{fill:#8BC462;}
</style>
<g id="Layer_2">
	<g id="Layer_1-2">
		<path class="st0" d="M33.3,59.2h-7.4c-4.2,0-7.6-3.4-7.6-7.6v-8.7c0-1.1-0.9-2.1-2.1-2.1l0,0H7.6c-4.2,0-7.6-3.4-7.6-7.6v-7.4
			c0-4.2,3.4-7.6,7.6-7.6h8.7c1.1,0,2.1-0.9,2.1-2.1V7.6c0-4.2,3.4-7.6,7.6-7.6h7.4c4.2,0,7.6,3.4,7.6,7.6v8.7
			c0,1.1,0.9,2.1,2.1,2.1h8.7c4.2,0,7.6,3.4,7.6,7.6v7.4c0,4.2-3.4,7.6-7.6,7.6h-8.7c-1.1,0-2.1,0.9-2.1,2.1c0,0,0,0,0,0v8.7
			C40.9,55.8,37.5,59.2,33.3,59.2z M7.6,22.5c-1.9,0-3.4,1.5-3.4,3.4v7.4c0,1.9,1.5,3.4,3.4,3.4h8.7c3.4,0,6.2,2.8,6.2,6.2v8.7
			c0,1.9,1.5,3.4,3.4,3.4h7.4c1.9,0,3.4-1.5,3.4-3.4v-8.7c0-3.4,2.8-6.2,6.2-6.2h8.7c1.9,0,3.4-1.5,3.4-3.4v-7.4
			c0-1.9-1.5-3.4-3.4-3.4h-8.7c-3.4,0-6.2-2.8-6.2-6.2V7.6c0-1.9-1.5-3.4-3.4-3.4h-7.4c-1.9,0-3.4,1.5-3.4,3.4v8.7
			c0,3.4-2.8,6.2-6.2,6.2L7.6,22.5z"/>
	</g>
</g>
</svg>
