<?xml version="1.0" encoding="utf-8"?>
<!-- Generator: Adobe Illustrator 24.1.2, SVG Export Plug-In . SVG Version: 6.00 Build 0)  -->
<svg version="1.1" id="Capa_1" xmlns="http://www.w3.org/2000/svg" xmlns:xlink="http://www.w3.org/1999/xlink" x="0px" y="0px"
	 viewBox="0 0 53 52.6" style="enable-background:new 0 0 53 52.6;" xml:space="preserve">
<style type="text/css">
	.st0{fill:#FFFFFF;}
</style>
<path class="st0" d="M45.4,0H16.3c-4.2,0-7.6,3.4-7.6,7.6v1.2H7.6C3.4,8.8,0,12.2,0,16.4V45l0,0c0,4.2,3.4,7.6,7.6,7.6h27.8
	c0,0,0,0,0.1,0c4.1,0,7.5-3.3,7.6-7.4h2.4c4.2,0,7.6-3.4,7.6-7.6v-30C53,3.4,49.6,0,45.4,0z M35.4,48.4H7.6c-1.9,0-3.4-1.5-3.4-3.4
	V16.4c0-1.9,1.5-3.4,3.4-3.4h2.8c0.2,0,0.3,0,0.5,0c0.1,0,0.1,0,0.2,0h24.3c1.9,0,3.4,1.5,3.4,3.4v26c-0.1,0.3-0.2,0.6-0.1,0.9
	c0,0.2,0.1,0.4,0.1,0.6V45C38.8,46.9,37.3,48.4,35.4,48.4z M48.9,37.6c0,1.9-1.5,3.4-3.4,3.4H43V16.4l0,0c0-4.2-3.4-7.6-7.6-7.6
	H12.8V7.6c0-1.9,1.5-3.4,3.4-3.4h29.2c1.9,0,3.4,1.5,3.4,3.4L48.9,37.6L48.9,37.6z"/>
</svg>
