<?xml version="1.0" encoding="utf-8"?>
<!-- Generator: Adobe Illustrator 24.1.2, SVG Export Plug-In . SVG Version: 6.00 Build 0)  -->
<svg version="1.1" id="Capa_1" xmlns="http://www.w3.org/2000/svg" xmlns:xlink="http://www.w3.org/1999/xlink" x="0px" y="0px"
	 viewBox="0 0 76 57" style="enable-background:new 0 0 76 57;" xml:space="preserve">
<style type="text/css">
	.st0{fill:#FFFFFF;}
</style>
<g>
	<path class="st0" d="M1.6,4.6C12,13.5,30.3,29,35.7,33.8c1.2,1.3,3.2,1.3,4.5,0.1c0,0,0.1-0.1,0.1-0.1C45.7,29,64,13.5,74.4,4.6
		c0.7-0.5,0.8-1.5,0.2-2.2c-1.2-1.5-3-2.4-5-2.4H6.3c-2,0-3.8,0.9-5,2.4C0.8,3.1,0.9,4.1,1.6,4.6z"/>
	<path class="st0" d="M75.1,9.4c-0.6-0.3-1.2-0.2-1.7,0.2c-11.6,9.8-26.3,22.4-31,26.6c-2.5,2.4-6.4,2.4-8.8,0
		c-5-4.5-21.5-18.6-31-26.6C1.9,9.1,0.9,9.2,0.4,9.9c-0.2,0.3-0.4,0.6-0.4,1v39.8C0,54.2,2.8,57,6.3,57h63.3c3.5,0,6.3-2.8,6.3-6.3
		V10.8C76,10.2,75.6,9.7,75.1,9.4z"/>
</g>
</svg>
