<svg xmlns="http://www.w3.org/2000/svg" viewBox="0 0 76 57"><defs><style>.cls-1{fill:#122e5c;}</style></defs><g id="Layer_2" data-name="Layer 2"><g id="Layer_1-2" data-name="Layer 1"><path class="cls-1" d="M1.59,4.62C12,13.46,30.32,29,35.7,33.85a3.19,3.19,0,0,0,4.6,0C45.68,29,64,13.46,74.41,4.62a1.58,1.58,0,0,0,.23-2.18,6.3,6.3,0,0,0-5-2.44H6.33a6.3,6.3,0,0,0-5,2.44A1.58,1.58,0,0,0,1.59,4.62Z"/><path class="cls-1" d="M75.08,9.41a1.58,1.58,0,0,0-1.69.23C61.83,19.45,47.06,32,42.42,36.2a6.4,6.4,0,0,1-8.84,0c-4.95-4.46-21.53-18.56-31-26.56A1.58,1.58,0,0,0,0,10.85V50.67A6.34,6.34,0,0,0,6.33,57H69.67A6.34,6.34,0,0,0,76,50.67V10.85A1.59,1.59,0,0,0,75.08,9.41Z"/></g></g></svg>