<?xml version="1.0" encoding="utf-8"?>
<!-- Generator: Adobe Illustrator 24.1.2, SVG Export Plug-In . SVG Version: 6.00 Build 0)  -->
<svg version="1.1" id="Capa_1" xmlns="http://www.w3.org/2000/svg" xmlns:xlink="http://www.w3.org/1999/xlink" x="0px" y="0px"
	 viewBox="0 0 60.6 60.6" style="enable-background:new 0 0 60.6 60.6;" xml:space="preserve">
<style type="text/css">
	.st0{fill:#FFFFFF;}
</style>
<g>
	<path class="st0" d="M53.2,0h-17c-1.9,0-3.8,0.8-5.2,2.2L2.2,31c-2.9,2.9-2.9,7.5,0,10.4l17,17c1.4,1.4,3.3,2.2,5.2,2.2
		c2,0,3.8-0.8,5.2-2.2l28.8-28.8c1.4-1.4,2.2-3.3,2.2-5.2v-17C60.6,3.3,57.3,0,53.2,0z M56.5,24.4c0,0.9-0.4,1.7-1,2.3L26.7,55.5
		c-1.3,1.3-3.3,1.3-4.6,0l-17-17c-1.3-1.3-1.3-3.3,0-4.6L33.9,5.1c0.6-0.6,1.4-1,2.3-1h17c1.8,0,3.3,1.5,3.3,3.3V24.4z"/>
	<path class="st0" d="M46.4,7.3c-3.8,0-6.9,3.1-6.9,6.9s3.1,6.9,6.9,6.9c3.8,0,6.9-3.1,6.9-6.9c0,0,0,0,0,0
		C53.3,10.4,50.2,7.3,46.4,7.3z M46.4,16.9c-1.5,0-2.7-1.2-2.7-2.7s1.2-2.7,2.7-2.7s2.7,1.2,2.7,2.7S47.9,16.9,46.4,16.9z"/>
	<path class="st0" d="M20.6,34.9c2.3,0,4.1-1.8,4.1-4.1c0,0,0,0,0,0c0-2.3-1.9-4.1-4.1-4.1c-2.3,0-4.1,1.9-4.1,4.1
		S18.3,34.9,20.6,34.9z M20.6,29.4c0.8,0,1.4,0.6,1.4,1.4c0,0,0,0,0,0c0,0.8-0.6,1.4-1.4,1.4c-0.8,0-1.4-0.6-1.4-1.4
		S19.9,29.4,20.6,29.4z"/>
	<path class="st0" d="M29.8,35.7c-2.3,0-4.1,1.9-4.1,4.2c0,2.3,1.9,4.1,4.2,4.1c2.3,0,4.1-1.9,4.1-4.1c0,0,0,0,0,0
		C33.9,37.6,32,35.7,29.8,35.7z M31.2,39.9c0,0.8-0.6,1.4-1.4,1.4s-1.4-0.6-1.4-1.4c0-0.8,0.6-1.4,1.4-1.4v0
		C30.5,38.5,31.1,39.1,31.2,39.9C31.2,39.9,31.2,39.9,31.2,39.9z"/>
	<path class="st0" d="M31.6,27L16.9,41.6c0,0,0,0,0,0c-0.5,0.6-0.5,1.4,0,2c0.3,0.3,0.6,0.4,1,0.4c0.4,0,0.7-0.1,1-0.4l14.7-14.7
		c0.5-0.5,0.5-1.4,0-2C33,26.5,32.1,26.5,31.6,27z"/>
</g>
</svg>
