<?xml version="1.0" encoding="utf-8"?>
<!-- Generator: Adobe Illustrator 24.1.2, SVG Export Plug-In . SVG Version: 6.00 Build 0)  -->
<svg version="1.1" id="Capa_1" xmlns="http://www.w3.org/2000/svg" xmlns:xlink="http://www.w3.org/1999/xlink" x="0px" y="0px"
	 viewBox="0 0 56.2 57.3" style="enable-background:new 0 0 56.2 57.3;" xml:space="preserve">
<style type="text/css">
	.st0{fill:#4CB622;}
</style>
<g>
	<path class="st0" d="M51.2,31.5V15.1c0-5-4-9-9-9h-2.2v-4c0-0.1,0-0.2,0-0.3c-0.1-1.1-1.1-2-2.2-1.9c-1.1,0.1-2,1.1-1.9,2.2v4h-8.3
		v-4c0-0.1,0-0.2,0-0.3c-0.1-1.1-1.1-2-2.2-1.9c-1.1,0.1-2,1.1-1.9,2.2v4h-8.3v-4c0-0.1,0-0.2,0-0.3c-0.1-1.1-1.1-2-2.2-1.9
		c-1.1,0.1-2,1.1-1.9,2.2v4H9c-4.9,0-9,4-9,8.9v29.3c0,5,4,9,9,9h22.4c2.6,2.5,6.2,4,10.1,4c8.1,0,14.7-6.6,14.7-14.7c0,0,0,0,0,0
		C56.2,38.2,54.3,34.2,51.2,31.5z M8.9,49.2c-2.7,0-4.8-2.2-4.8-4.8V15c0,0,0,0,0-0.1c0-2.7,2.2-4.8,4.9-4.8h2.2v4
		c0,1.1,0.9,2.1,2.1,2.1c1.1,0,2.1-0.9,2.1-2.1v-4h8.3v4c0,1.1,0.9,2.1,2.1,2.1c1.1,0,2.1-0.9,2.1-2.1v-4h8.3v4
		c0,1.1,0.9,2.1,2.1,2.1c1.1,0,2.1-0.9,2.1-2.1v-4h2.2c2.7,0,4.8,2.2,4.8,4.8v13.9c-1.7-0.7-3.7-1.1-5.7-1.1
		c-8.1,0-14.7,6.6-14.7,14.8c0,2.4,0.6,4.6,1.6,6.6L8.9,49.2C9,49.2,9,49.2,8.9,49.2z M41.5,53.1c-2.8,0-5.4-1.1-7.3-2.9
		c-0.2-0.3-0.5-0.6-0.8-0.8c-1.6-1.9-2.5-4.3-2.5-6.9c0-5.9,4.7-10.6,10.6-10.6v0C47.3,32,52,36.7,52,42.6
		C52,48.4,47.3,53.1,41.5,53.1z"/>
	<path class="st0" d="M45.8,41.9h-2.9v-4.5c0-0.1,0-0.2,0-0.3c-0.1-1.1-1.1-2-2.2-1.9c-1.1,0.1-2,1.1-1.9,2.2v6.6
		c0,1.1,0.9,2.1,2.1,2.1h5l0,0c0.1,0,0.2,0,0.3,0c1.1-0.1,2-1.1,1.9-2.2S46.9,41.8,45.8,41.9z"/>
	<path class="st0" d="M13.4,19.6c-1.1,0-2.1,0.9-2.1,2.1c0,1.1,0.9,2.1,2.1,2.1c1.1,0,2.1-0.9,2.1-2.1
		C15.4,20.5,14.5,19.6,13.4,19.6z"/>
	<path class="st0" d="M21.6,19.6c-1.1,0-2.1,0.9-2.1,2.1c0,1.1,0.9,2.1,2.1,2.1s2.1-0.9,2.1-2.1C23.6,20.5,22.7,19.6,21.6,19.6z"/>
	<circle class="st0" cx="13.4" cy="31" r="2.1"/>
	<circle class="st0" cx="21.6" cy="31" r="2.1"/>
	<circle class="st0" cx="13.4" cy="40.4" r="2.1"/>
	<circle class="st0" cx="21.6" cy="40.4" r="2.1"/>
	<path class="st0" d="M29.8,23.7c1.1,0,2.1-0.9,2.1-2.1c0-1.1-0.9-2.1-2.1-2.1c-1.1,0-2.1,0.9-2.1,2.1
		C27.7,22.8,28.6,23.7,29.8,23.7z"/>
	<path class="st0" d="M38,23.7c1.1,0,2.1-0.9,2.1-2.1c0-1.1-0.9-2.1-2.1-2.1s-2.1,0.9-2.1,2.1C35.9,22.8,36.9,23.7,38,23.7z"/>
</g>
</svg>
