<?xml version="1.0" encoding="utf-8"?>
<!-- Generator: Adobe Illustrator 24.1.2, SVG Export Plug-In . SVG Version: 6.00 Build 0)  -->
<svg version="1.1" id="Capa_1" xmlns="http://www.w3.org/2000/svg" xmlns:xlink="http://www.w3.org/1999/xlink" x="0px" y="0px"
	 viewBox="0 0 47.5 42.2" style="enable-background:new 0 0 47.5 42.2;" xml:space="preserve">
<style type="text/css">
	.st0{fill:#122E5C;}
</style>
<g>
	<path class="st0" d="M32,27.8l3.3-3.3c0.6-0.6,1.7-0.2,1.7,0.7v13c0,2.2-1.8,4-4,4H4c-2.2,0-4-1.8-4-4v-29c0-2.2,1.8-4,4-4h23.6
		c0.9,0,1.3,1.1,0.7,1.7l-3.3,3.3c-0.2,0.2-0.4,0.3-0.7,0.3h-19v26.4h26.4v-8.4C31.7,28.3,31.8,28,32,27.8z M40.6,14.3
		c0.3,0.3,0.3,0.8,0,1.1l-18,18L15,34.3c-1,0.1-1.9-0.8-1.8-1.8l0.8-7.7l18-18c0.3-0.3,0.8-0.3,1.1,0L40.6,14.3z M46.6,9.5l-2.9,2.9
		c-0.3,0.3-0.8,0.3-1.1,0L35.1,5c-0.3-0.3-0.3-0.8,0-1.1L38,0.9c1.3-1.3,3.3-1.3,4.6,0l4,4C47.8,6.2,47.8,8.3,46.6,9.5z"/>
</g>
</svg>
