<svg xmlns="http://www.w3.org/2000/svg" viewBox="0 0 60.59 50.22"><defs><style>.cls-1{fill:#122e5c;}</style></defs><g id="Layer_2" data-name="Layer 2"><g id="Layer_1-2" data-name="Layer 1"><path class="cls-1" d="M52.19,50.22H8.4a8.45,8.45,0,0,1-5.9-2.47A8.14,8.14,0,0,1,0,41.82V15.09A8.41,8.41,0,0,1,2.47,9.2,8.09,8.09,0,0,1,8.4,6.7h6.92C15.91,2.52,18.45,0,22.24,0h16.1c3.77,0,6.29,2.52,6.87,6.7h7A8.12,8.12,0,0,1,58.1,9.18a8.12,8.12,0,0,1,2.49,5.91V41.82a8.45,8.45,0,0,1-2.47,5.9A8.14,8.14,0,0,1,52.19,50.22ZM8.4,10.83a4,4,0,0,0-3,1.24l0,0a4.38,4.38,0,0,0-1.27,3V41.82a4,4,0,0,0,1.24,3l0,0a4.35,4.35,0,0,0,3,1.28H52.19a4,4,0,0,0,3-1.24l0,0a4.31,4.31,0,0,0,1.28-3V15.09a4,4,0,0,0-1.24-3l-.07-.06a4,4,0,0,0-3-1.24H43.28a2.07,2.07,0,0,1-2.06-2.07v-.1c0-3-1-4.53-2.88-4.53H22.24c-2.41,0-2.92,2.46-2.92,4.53v.1a2.07,2.07,0,0,1-2.07,2.07Z"/><path class="cls-1" d="M30.29,40.88a12.46,12.46,0,0,1-8.73-3.59l0,0a12.34,12.34,0,0,1-3.61-8.76,12.54,12.54,0,0,1,3.59-8.74l0,0a12.3,12.3,0,0,1,8.76-3.61A12.51,12.51,0,0,1,39,19.73l0,0a12.27,12.27,0,0,1,3.61,8.74,12,12,0,0,1-3.61,8.78l0,0A12.46,12.46,0,0,1,30.29,40.88Zm-5.85-6.54a8.31,8.31,0,0,0,11.7,0,8,8,0,0,0,2.39-5.79v0a8.21,8.21,0,0,0-2.39-5.83,8.39,8.39,0,0,0-5.85-2.41,8.17,8.17,0,0,0-5.82,2.39,8.37,8.37,0,0,0-2.41,5.85A8.2,8.2,0,0,0,24.44,34.34Zm13.15,1.47Z"/><path class="cls-1" d="M49.4,21.56a3.73,3.73,0,1,1,3.73-3.73A3.73,3.73,0,0,1,49.4,21.56Zm0-5.26a1.53,1.53,0,1,0,1.53,1.53A1.54,1.54,0,0,0,49.4,16.3Z"/></g></g></svg>