<?xml version="1.0" encoding="utf-8"?>
<!-- Generator: Adobe Illustrator 24.1.2, SVG Export Plug-In . SVG Version: 6.00 Build 0)  -->
<svg version="1.1" id="Capa_1" xmlns="http://www.w3.org/2000/svg" xmlns:xlink="http://www.w3.org/1999/xlink" x="0px" y="0px"
	 viewBox="0 0 30.8 57" style="enable-background:new 0 0 30.8 57;" xml:space="preserve">
<style type="text/css">
	.st0{fill:#FFFFFF;}
</style>
<path class="st0" d="M29.7,0C29.7,0,29.7,0,29.7,0l-7.4,0C14,0,8.6,5.5,8.6,14v6.5H1.2C0.5,20.5,0,21,0,21.7V31
	c0,0.6,0.5,1.2,1.2,1.2h7.4v23.7c0,0.6,0.5,1.2,1.2,1.2c0,0,0,0,0,0h9.7c0.6,0,1.2-0.5,1.2-1.1c0,0,0,0,0,0V32.2h8.7
	c0.6,0,1.2-0.5,1.2-1.1c0,0,0,0,0,0v-9.3c0-0.3-0.1-0.6-0.3-0.8c-0.2-0.2-0.5-0.3-0.8-0.3h-8.7V15c0-2.6,0.6-4,4.1-4h5
	c0.6,0,1.2-0.5,1.2-1.2V1.2C30.8,0.5,30.3,0,29.7,0z"/>
</svg>
