<svg xmlns="http://www.w3.org/2000/svg" viewBox="0 0 30.82 57"><defs><style>.cls-1{fill:#122e5c;}</style></defs><g id="Layer_2" data-name="Layer 2"><g id="Layer_1-2" data-name="Layer 1"><path class="cls-1" d="M29.66,0H22.27C14,0,8.59,5.51,8.59,14V20.5H1.16A1.16,1.16,0,0,0,0,21.66V31a1.16,1.16,0,0,0,1.16,1.16H8.59V55.84A1.16,1.16,0,0,0,9.76,57h9.69a1.16,1.16,0,0,0,1.17-1.16V32.19H29.3A1.16,1.16,0,0,0,30.47,31V21.66a1.13,1.13,0,0,0-.34-.82,1.15,1.15,0,0,0-.82-.34H20.62V15c0-2.63.62-4,4.06-4h5a1.16,1.16,0,0,0,1.16-1.16V1.17A1.16,1.16,0,0,0,29.66,0Z"/></g></g></svg>