<?xml version="1.0" encoding="utf-8"?>
<!-- Generator: Adobe Illustrator 24.1.2, SVG Export Plug-In . SVG Version: 6.00 Build 0)  -->
<svg version="1.1" id="Capa_1" xmlns="http://www.w3.org/2000/svg" xmlns:xlink="http://www.w3.org/1999/xlink" x="0px" y="0px"
	 viewBox="0 0 56.5 50.9" style="enable-background:new 0 0 56.5 50.9;" xml:space="preserve">
<style type="text/css">
	.st0{fill:#FF3030;}
</style>
<path class="st0" d="M52.3,4.9C49.6,1.8,45.6,0,41.5,0c-6,0-9.7,3.6-11.8,6.5c-0.5,0.7-1,1.5-1.4,2.3c-0.4-0.8-0.9-1.5-1.4-2.3
	C22.6-0.1,13.8-2,7.2,2.3C6,3,5,3.9,4.1,4.9C1.4,8.1-0.1,12.1,0,16.3C0.2,21.7,2.2,26.9,5.8,31c3.5,4.2,8.6,8.5,14.4,13.5
	c2.2,1.9,4.4,3.8,6.9,5.9l0.1,0.1c0.6,0.5,1.6,0.5,2.2,0l0.1-0.1c2.4-2.1,4.7-4,6.8-5.9c5.9-5,10.9-9.3,14.4-13.5
	c3.6-4.1,5.6-9.3,5.8-14.8C56.5,12.1,55,8.1,52.3,4.9z"/>
</svg>
