<?xml version="1.0" encoding="utf-8"?>
<!-- Generator: Adobe Illustrator 24.1.2, SVG Export Plug-In . SVG Version: 6.00 Build 0)  -->
<svg version="1.1" id="Capa_1" xmlns="http://www.w3.org/2000/svg" xmlns:xlink="http://www.w3.org/1999/xlink" x="0px" y="0px"
	 viewBox="0 0 56.5 50.4" style="enable-background:new 0 0 56.5 50.4;" xml:space="preserve">
<style type="text/css">
	.st0{fill:#B3B3B3;}
</style>
<g>
	<path class="st0" d="M23.1,28.2l5.5-5.3c0.4-0.4,0.6-1,0.6-1.6c0-0.6-0.3-1.1-0.8-1.5l-8.6-6.3l6-8.8c0.4-0.5,0.5-1.1,0.3-1.7
		c-0.2-0.6-0.6-1.1-1.1-1.4c-2.4-1-5.1-1.6-7.8-1.6h-0.1C12.8,0,8.6,1.7,5.4,4.6c-6.9,6.5-7.3,17.3-0.8,24.2l19.3,20.3
		c0.4,0.5,0.9,0.8,1.4,1.1c0.3,0.1,0.6,0.2,0.9,0.2s0.7-0.1,1-0.3c0.5-0.3,0.9-0.9,1-1.6l1.3-13.3c0-0.6-0.2-1.3-0.7-1.7L23.1,28.2z
		 M24.6,44L7.7,26.1c-2.2-2.4-3.5-5.5-3.5-8.8C4.1,10.1,9.9,4.2,17.1,4.2h0.3c1.2,0.1,2.5,0.2,3.7,0.5l-4.6,6.7
		c-1.2,1.8-0.8,4.2,0.9,5.4l6.8,5l-4,3.8c-0.8,0.7-1.2,1.8-1.2,2.9c0,1.1,0.5,2.1,1.3,2.8l5.1,4.7L24.6,44z"/>
	<path class="st0" d="M39.3,0C36,0,32.8,0.9,30,2.2c-0.3,0.2-0.5,0.4-0.7,0.7l-4.7,7.6c-0.5,0.9-0.3,2,0.5,2.7l9,7.4l-4.7,5.8
		c-0.7,0.8-0.6,2.1,0.2,2.8l4.2,3.8l-3.7,13.1c-0.3,1,0.2,1.9,1,2.4c0.3,0.2,0.6,0.3,1,0.3c0.5,0,1.1-0.2,1.5-0.6l18.2-19.4
		c3-3.2,4.6-7.4,4.6-11.7C56.4,7.7,48.7,0,39.3,0z M48.8,26L36.4,39.2l1.5-5.1V34c0.3-1.4-0.1-2.8-1.2-3.8l-2.9-2.6l3.4-4.2
		c0.1-0.1,0.2-0.2,0.3-0.3c1.2-1.7,0.9-4.1-0.8-5.4L29,11.4l3.6-5.6c2.1-1.1,4.4-1.7,6.8-1.7c3.3,0,6.4,1.3,8.8,3.5
		C53.4,12.5,53.7,20.8,48.8,26z"/>
</g>
</svg>
