<?xml version="1.0" encoding="utf-8"?>
<!-- Generator: Adobe Illustrator 24.1.2, SVG Export Plug-In . SVG Version: 6.00 Build 0)  -->
<svg version="1.1" id="Capa_1" xmlns="http://www.w3.org/2000/svg" xmlns:xlink="http://www.w3.org/1999/xlink" x="0px" y="0px"
	 viewBox="0 0 47 48.2" style="enable-background:new 0 0 47 48.2;" xml:space="preserve">
<style type="text/css">
	.st0{fill:#122E5C;}
</style>
<g>
	<path class="st0" d="M2.2,9.2H13c0.9,2.8,3.5,4.7,6.6,4.7c3.1,0,5.7-2,6.6-4.7h18.7c1-0.1,1.8-0.9,1.9-1.9c0.1-1.1-0.8-2.1-1.9-2.2
		H26.2c-0.9-2.7-3.4-4.7-6.3-4.8C16.7,0.1,14,2.1,13,5H2.2C1.1,5,0.1,5.9,0.1,7.1S1.1,9.2,2.2,9.2z M16.8,6.9c0-1.6,1.3-2.8,2.8-2.8
		c1.6,0,2.8,1.3,2.8,2.8V7c0,1.6-1.3,2.8-2.8,2.8c-1.6,0-2.8-1.3-2.8-2.8c0,0,0,0,0,0C16.8,7,16.8,7,16.8,6.9L16.8,6.9z"/>
	<path class="st0" d="M44.9,39.2H18.8c-0.9-2.6-3.4-4.5-6.3-4.6c-3.1-0.1-5.8,1.8-6.8,4.6H2.2c0,0,0,0,0,0c-1.1,0-2.1,0.9-2.1,2.1
		c0,1.1,0.9,2.1,2.1,2.1h3.4c0.9,2.8,3.5,4.9,6.6,4.9c3.1,0,5.7-2.1,6.6-4.9h26c1.1,0,2.1-0.9,2.1-2.1C47,40.1,46.1,39.2,44.9,39.2z
		 M12.3,44.1c-1.6,0-2.8-1.3-2.8-2.8c0,0,0,0,0,0c0,0,0,0,0,0c0-1.5,1.3-2.8,2.8-2.8c1.6,0,2.8,1.3,2.8,2.8c0,0,0,0,0,0c0,0,0,0,0,0
		C15.1,42.8,13.8,44.1,12.3,44.1z"/>
	<path class="st0" d="M2,26.2h25.3c0.9,2.8,3.5,4.8,6.6,4.9c3.1,0,5.7-2.1,6.6-4.9h4.2c1-0.1,1.8-0.9,1.9-1.9
		c0.1-1.1-0.8-2.1-1.9-2.2h-4.3c-0.9-2.6-3.4-4.5-6.3-4.6c-3.1-0.1-5.8,1.8-6.8,4.6H2c-0.1,0-0.2,0-0.3,0c-1.1,0.1-2,1.1-1.9,2.2
		C-0.1,25.5,0.9,26.3,2,26.2z M33.9,21.4c1.4,0,2.5,1,2.8,2.2c-0.1,0.2-0.1,0.5-0.1,0.7c0,0.2,0,0.3,0.1,0.4
		C36.4,26,35.3,27,33.9,27c-1.4,0-2.5-1-2.8-2.3c0.1-0.2,0.1-0.4,0.1-0.7c0-0.2,0-0.3-0.1-0.4C31.4,22.3,32.6,21.4,33.9,21.4z"/>
</g>
</svg>
