<?xml version="1.0" encoding="utf-8"?>
<!-- Generator: Adobe Illustrator 24.1.2, SVG Export Plug-In . SVG Version: 6.00 Build 0)  -->
<svg version="1.1" id="Capa_1" xmlns="http://www.w3.org/2000/svg" xmlns:xlink="http://www.w3.org/1999/xlink" x="0px" y="0px"
	 viewBox="0 0 57 57" style="enable-background:new 0 0 57 57;" xml:space="preserve">
<style type="text/css">
	.st0{fill:#122E5C;}
</style>
<g>
	<path class="st0" d="M28.5,0C12.7,0,0,12.8,0,28.5S12.8,57,28.5,57S57,44.2,57,28.5C57,12.7,44.2,0,28.5,0z M28.5,52.9
		C15,52.9,4.1,42,4.1,28.5S15,4.1,28.5,4.1S52.9,15,52.9,28.5S42,52.9,28.5,52.9z"/>
	<path class="st0" d="M42.2,15.1c-0.9-0.7-2.2-0.4-2.9,0.5L24.9,36.7l-7.3-9.3c-0.7-0.9-2-1-2.9-0.3c-0.9,0.7-1,2-0.3,2.9l9.1,11.5
		c0.4,0.5,1,0.8,1.6,0.8c0.7,0,1.3-0.4,1.6-0.9l16-23.4C43.4,17.1,43.2,15.8,42.2,15.1z"/>
</g>
</svg>
