<?xml version="1.0" encoding="utf-8"?>
<!-- Generator: Adobe Illustrator 24.1.2, SVG Export Plug-In . SVG Version: 6.00 Build 0)  -->
<svg version="1.1" id="Capa_1" xmlns="http://www.w3.org/2000/svg" xmlns:xlink="http://www.w3.org/1999/xlink" x="0px" y="0px"
	 viewBox="0 0 47 48.2" style="enable-background:new 0 0 47 48.2;" xml:space="preserve">
<style type="text/css">
	.st0{fill:#FFFFFF;}
</style>
<g id="Layer_2">
	<g id="Layer_1-2">
		<path class="st0" d="M44.9,9.2H24.5c-1.1-0.1-2-1.1-1.9-2.2c0.1-1,0.9-1.8,1.9-1.9h20.4c1.1,0.1,2,1.1,1.9,2.2
			C46.8,8.3,45.9,9.1,44.9,9.2z"/>
		<path class="st0" d="M14.7,9.2H2.2c-1.1,0-2.1-0.9-2.1-2.1S1.1,5,2.2,5h12.5c1.1,0.1,2,1.1,1.9,2.2C16.6,8.2,15.8,9.1,14.7,9.2
			L14.7,9.2z"/>
		<path class="st0" d="M24.5,9.2L24.5,9.2c-1.2,0-2.1-1-2.1-2.1V6.9c0-1.6-1.3-2.8-2.8-2.8c-1.6,0-2.8,1.3-2.8,2.8V7
			c0.1,1.1-0.7,2.1-1.9,2.3s-2.1-0.7-2.3-1.9c0-0.1,0-0.2,0-0.3c0-0.1,0-0.1,0-0.2c0.1-3.8,3.4-6.8,7.2-6.7c3.6,0.1,6.5,3,6.7,6.7
			c0,0.1,0,0.2,0,0.2C26.5,8.3,25.6,9.2,24.5,9.2z"/>
		<path class="st0" d="M19.6,13.9c-3.8,0-6.8-3-6.9-6.7c0-1.1,0.9-2.1,2-2.1h0.1c1.1,0,2,0.9,2.1,2c0,1.6,1.3,2.8,2.8,2.8
			c1.6,0,2.8-1.3,2.8-2.8c0-1.1,1-2,2.1-2c1.1,0,2,1,2,2.1l0,0C26.4,10.9,23.4,13.9,19.6,13.9z"/>
		<path class="st0" d="M44.9,43.3H17.2c-1.1,0-2.1-0.9-2.1-2.1c0-1.1,0.9-2.1,2.1-2.1c0,0,0,0,0,0h27.8c1.1,0,2.1,0.9,2.1,2.1
			C47,42.4,46.1,43.3,44.9,43.3z"/>
		<path class="st0" d="M7.4,43.3H2.2c-1.1,0-2.1-0.9-2.1-2.1s0.9-2.1,2.1-2.1c0,0,0,0,0,0h5.2c1.1,0,2.1,0.9,2.1,2.1
			S8.5,43.3,7.4,43.3C7.4,43.3,7.4,43.3,7.4,43.3z"/>
		<path class="st0" d="M12.3,48.2c-3.8,0-6.9-3.1-6.9-6.9c-0.1-1.1,0.8-2.1,1.9-2.2C8.4,39,9.4,39.8,9.5,41c0,0.1,0,0.2,0,0.3
			c0,1.6,1.3,2.8,2.8,2.8s2.8-1.3,2.8-2.8l0,0c0-1.1,0.9-2.1,2.1-2.1c1.1,0,2.1,0.9,2.1,2.1C19.2,45.1,16.1,48.2,12.3,48.2z"/>
		<path class="st0" d="M17.2,43.3c-1.1,0-2.1-0.9-2.1-2.1c0-1.6-1.3-2.8-2.8-2.8s-2.8,1.3-2.8,2.8c0.1,1.1-0.8,2.1-1.9,2.2
			s-2.1-0.8-2.2-1.9c0-0.1,0-0.2,0-0.3c0.1-3.8,3.4-6.8,7.2-6.7c3.6,0.1,6.5,3,6.7,6.7C19.2,42.4,18.3,43.3,17.2,43.3z"/>
		<path class="st0" d="M44.8,26.2h-5.9c-1.1,0.1-2.1-0.8-2.2-1.9c-0.1-1.1,0.8-2.1,1.9-2.2c0.1,0,0.2,0,0.3,0h6
			c1.1,0.1,2,1.1,1.9,2.2C46.6,25.3,45.8,26.2,44.8,26.2z"/>
		<path class="st0" d="M29,26.2H2c-1.1,0.1-2.1-0.8-2.2-1.9c-0.1-1.1,0.8-2.1,1.9-2.2c0.1,0,0.2,0,0.3,0h27c1.1-0.1,2.1,0.8,2.2,1.9
			s-0.8,2.1-1.9,2.2C29.2,26.2,29.1,26.2,29,26.2z"/>
		<path class="st0" d="M33.9,31.1c-3.8,0-6.9-3.1-6.9-7c0.1-1.1,1.1-2,2.2-1.9c1,0.1,1.8,0.9,1.9,1.9c0,1.6,1.3,2.8,2.8,2.8
			c1.6,0,2.8-1.3,2.8-2.8c0,0,0,0,0,0c0-1.1,0.9-2.1,2.1-2.1c1.1,0,2.1,0.9,2.1,2.1C40.9,28,37.8,31.1,33.9,31.1z"/>
		<path class="st0" d="M38.8,26.2c-1.1,0-2.1-0.9-2.1-2.1c0-1.6-1.3-2.8-2.8-2.8c-1.6,0-2.8,1.3-2.8,2.8c0,0,0,0,0,0
			c0.1,1.1-0.8,2.1-1.9,2.2s-2.1-0.8-2.2-1.9c0-0.1,0-0.2,0-0.3c0.1-3.8,3.4-6.8,7.2-6.7c3.6,0.1,6.5,3,6.7,6.7
			C40.9,25.3,40,26.2,38.8,26.2z"/>
	</g>
</g>
</svg>
