<svg xmlns="http://www.w3.org/2000/svg" viewBox="0 0 46.97 48.19"><defs><style>.cls-1{fill:#122e5c;}</style></defs><g id="Layer_2" data-name="Layer 2"><g id="Layer_1-2" data-name="Layer 1"><path class="cls-1" d="M44.91,9.16H24.47a2.07,2.07,0,0,1,0-4.13H44.91a2.07,2.07,0,0,1,0,4.13Z"/><path class="cls-1" d="M14.73,9.16H2.22A2.07,2.07,0,1,1,2.22,5H14.73a2.07,2.07,0,0,1,0,4.13Z"/><path class="cls-1" d="M24.47,9.17h-.06a2.08,2.08,0,0,1-2-2.14V6.91a2.81,2.81,0,0,0-5.62,0V7a2.07,2.07,0,1,1-4.13.13c0-.06,0-.14,0-.22a6.95,6.95,0,0,1,13.89,0,1.69,1.69,0,0,1,0,.23A2.06,2.06,0,0,1,24.47,9.17Z"/><path class="cls-1" d="M19.6,13.89a6.92,6.92,0,0,1-6.94-6.73,2.07,2.07,0,0,1,2-2.13h.07a2.06,2.06,0,0,1,2.06,2,2.81,2.81,0,0,0,5.62,0,2.06,2.06,0,1,1,4.12.13A6.91,6.91,0,0,1,19.6,13.89Z"/><path class="cls-1" d="M44.91,43.32H17.16a2.07,2.07,0,1,1,0-4.14H44.91a2.07,2.07,0,0,1,0,4.14Z"/><path class="cls-1" d="M7.4,43.32H2.22a2.07,2.07,0,1,1,0-4.14H7.4a2.07,2.07,0,1,1,0,4.14Z"/><path class="cls-1" d="M12.28,48.19a6.94,6.94,0,0,1-6.94-6.94,2.07,2.07,0,1,1,4.13,0,2.81,2.81,0,0,0,5.62,0,2.07,2.07,0,0,1,4.14,0A7,7,0,0,1,12.28,48.19Z"/><path class="cls-1" d="M17.16,43.32a2.07,2.07,0,0,1-2.07-2.07,2.81,2.81,0,0,0-5.62,0,2.07,2.07,0,1,1-4.13,0,6.95,6.95,0,0,1,13.89,0A2.07,2.07,0,0,1,17.16,43.32Z"/><path class="cls-1" d="M44.76,26.24H38.81a2.07,2.07,0,1,1,0-4.13h5.95a2.07,2.07,0,0,1,0,4.13Z"/><path class="cls-1" d="M29.05,26.24h-27a2.07,2.07,0,1,1,0-4.13h27a2.07,2.07,0,1,1,0,4.13Z"/><path class="cls-1" d="M33.93,31.12A7,7,0,0,1,27,24.17a2.07,2.07,0,0,1,4.13,0,2.81,2.81,0,1,0,5.62,0,2.07,2.07,0,0,1,4.14,0A7,7,0,0,1,33.93,31.12Z"/><path class="cls-1" d="M38.81,26.24a2.07,2.07,0,0,1-2.07-2.07,2.81,2.81,0,1,0-5.62,0,2.07,2.07,0,1,1-4.13,0,6.95,6.95,0,0,1,13.89,0A2.07,2.07,0,0,1,38.81,26.24Z"/></g></g></svg>