<svg xmlns="http://www.w3.org/2000/svg" viewBox="0 0 57 57"><defs><style>.cls-1{fill:#122e5c;}</style></defs><g id="Layer_2" data-name="Layer 2"><g id="Layer_1-2" data-name="Layer 1"><path class="cls-1" d="M56.53,23.34,56.28,22H28.5V35.33H42a15.06,15.06,0,0,1-5.77,6.19h0A15.14,15.14,0,0,1,15.49,20.77h0a15.14,15.14,0,0,1,23.72-3L40.39,19l9.44-9.44L48.65,8.35a28.49,28.49,0,0,0-40.3,0,29.74,29.74,0,0,0-2.47,2.81h0a28.51,28.51,0,0,0,0,34.68h0a29.74,29.74,0,0,0,2.47,2.81,28.5,28.5,0,0,0,37.49,2.47h0a29.74,29.74,0,0,0,2.81-2.47A28.28,28.28,0,0,0,57,28.5,28.71,28.71,0,0,0,56.53,23.34Z"/></g></g></svg>