<?xml version="1.0" encoding="utf-8"?>
<!-- Generator: Adobe Illustrator 24.1.2, SVG Export Plug-In . SVG Version: 6.00 Build 0)  -->
<svg version="1.1" id="Capa_1" xmlns="http://www.w3.org/2000/svg" xmlns:xlink="http://www.w3.org/1999/xlink" x="0px" y="0px"
	 viewBox="0 0 57 57" style="enable-background:new 0 0 57 57;" xml:space="preserve">
<style type="text/css">
	.st0{fill:#122E5C;}
</style>
<path class="st0" d="M56.5,23.3L56.3,22H28.5v13.3H42c-1.3,2.6-3.3,4.7-5.8,6.2c-7.2,4.3-16.5,1.9-20.7-5.3
	c-2.8-4.8-2.8-10.7,0-15.4c4.3-7.2,13.5-9.6,20.7-5.3c1.1,0.6,2.1,1.4,3,2.3l1.2,1.2l9.4-9.4l-1.2-1.2C37.5-2.8,19.5-2.8,8.4,8.3
	c0,0,0,0,0,0c-0.9,0.9-1.7,1.8-2.5,2.8C-2,21.4-2,35.6,5.9,45.8c0.8,1,1.6,1.9,2.5,2.8c10.1,10.1,26.1,11.2,37.5,2.5
	c1-0.8,1.9-1.6,2.8-2.5C54,43.3,57,36.1,57,28.5C57,26.8,56.8,25,56.5,23.3z"/>
</svg>
