<?xml version="1.0" encoding="utf-8"?>
<!-- Generator: Adobe Illustrator 24.1.2, SVG Export Plug-In . SVG Version: 6.00 Build 0)  -->
<svg version="1.1" id="Capa_1" xmlns="http://www.w3.org/2000/svg" xmlns:xlink="http://www.w3.org/1999/xlink" x="0px" y="0px"
	 viewBox="0 0 58.8 57" style="enable-background:new 0 0 58.8 57;" xml:space="preserve">
<style type="text/css">
	.st0{fill:#FFFFFF;}
</style>
<g>
	<path class="st0" d="M28.8,14.7c-1.1-0.1-2.1,0.8-2.2,1.9v11.9c0,0.5,0.2,1.1,0.6,1.5L39,41.8c0.4,0.4,0.9,0.6,1.5,0.6
		c0.5,0,1.1-0.2,1.5-0.6c0.8-0.8,0.8-2.1,0-2.9L30.7,27.7v-11C30.6,15.6,29.8,14.8,28.8,14.7z"/>
	<path class="st0" d="M36.9,0.7C23.2-2.5,9.5,4.7,4.1,17.1V7.3c0-0.1,0-0.2,0-0.3C4.1,5.9,3.1,5,1.9,5.1C0.8,5.2-0.1,6.2,0,7.3v15.1
		c0,0,0,0,0,0c0,1.1,0.9,2.1,2.1,2h1.7c0.1,0.1,0.3,0.1,0.4,0.1c0.4,0.1,0.7,0,1.1-0.1h12c0.1,0,0.2,0,0.3,0c1.1-0.1,2-1.1,1.9-2.2
		c-0.1-1.1-1.1-2-2.2-1.9H7.3C10,12.6,16.6,6.7,24.7,4.8c13.1-3.1,26.2,5,29.3,18.1c3.1,13.1-5,26.2-18.1,29.3
		c-13.1,3.1-26.2-5-29.3-18.1c0-0.1,0-0.2-0.1-0.3c-0.3-1.1-1.5-1.7-2.6-1.3S2.2,33.9,2.5,35c3,12.9,14.5,22,27.8,22
		C43.5,57,55,47.9,58,35.1C61.7,19.7,52.2,4.4,36.9,0.7z"/>
</g>
</svg>
