<?xml version="1.0" encoding="utf-8"?>
<!-- Generator: Adobe Illustrator 24.1.2, SVG Export Plug-In . SVG Version: 6.00 Build 0)  -->
<svg version="1.1" id="Capa_1" xmlns="http://www.w3.org/2000/svg" xmlns:xlink="http://www.w3.org/1999/xlink" x="0px" y="0px"
	 viewBox="0 0 57 57" style="enable-background:new 0 0 57 57;" xml:space="preserve">
<style type="text/css">
	.st0{fill:#FFFFFF;}
</style>
<g>
	<path class="st0" d="M57,28.5C57,44.2,44.2,57,28.5,57S0,44.2,0,28.5C0,12.8,12.8,0,28.5,0S57,12.8,57,28.5z M34.9,40.1
		c0-0.8-0.6-1.4-1.4-1.4h-1.4V27.2c0-0.8-0.6-1.4-1.4-1.4h-7.4c-0.8,0-1.4,0.6-1.4,1.4V30c0,0.8,0.6,1.4,1.4,1.4h1.4v7.4h-1.4
		c-0.8,0-1.4,0.6-1.4,1.4v2.8c0,0.8,0.6,1.4,1.4,1.4h10.1c0.8,0,1.4-0.6,1.4-1.4V40.1z M23.7,16.5c0,2.7,2.2,4.8,4.8,4.8
		s4.8-2.2,4.8-4.8s-2.2-4.8-4.8-4.8S23.7,13.8,23.7,16.5z"/>
</g>
</svg>
