<?xml version="1.0" encoding="utf-8"?>
<!-- Generator: Adobe Illustrator 24.1.2, SVG Export Plug-In . SVG Version: 6.00 Build 0)  -->
<svg version="1.1" id="Capa_1" xmlns="http://www.w3.org/2000/svg" xmlns:xlink="http://www.w3.org/1999/xlink" x="0px" y="0px"
	 viewBox="0 0 57 57" style="enable-background:new 0 0 57 57;" xml:space="preserve">
<style type="text/css">
	.st0{fill:#FF3030;}
</style>
<g>
	<path class="st0" d="M28.5,0C12.8,0,0,12.8,0,28.5S12.8,57,28.5,57S57,44.2,57,28.5S44.2,0,28.5,0z M28.5,52.9
		C15.1,52.9,4.1,42,4.1,28.5s11-24.4,24.4-24.4S52.9,15,52.9,28.5S41.9,52.9,28.5,52.9z"/>
	<path class="st0" d="M31.4,28.5l10.2-10.2c0.9-0.8,0.9-2.2,0.1-3s-2.1-0.8-2.9,0L28.5,25.6L18.3,15.3c-0.8-0.8-2.1-0.8-2.9,0
		c-0.8,0.8-0.8,2.1,0,2.9l10.2,10.2L15.3,38.7c-0.8,0.8-0.8,2.1,0,2.9c0.4,0.4,0.9,0.6,1.5,0.6c0.5,0,1.1-0.2,1.5-0.6l10.2-10.2
		l10.2,10.2c0.4,0.4,0.9,0.6,1.5,0.6c0.5,0,1.1-0.2,1.5-0.6c0.8-0.8,0.8-2.1,0-2.9L31.4,28.5z"/>
</g>
</svg>
