<svg id="Capa_1" data-name="Capa 1" xmlns="http://www.w3.org/2000/svg" viewBox="0 0 260 260"><defs><style>.cls-1{fill:#dadada;}.cls-2{fill:#ea5b0c;}.cls-3{fill:#fff;}.cls-4{fill:#e30613;}.cls-5{fill:#122e5c;}</style></defs><path class="cls-1" d="M63.45,196.21h5.76l5.06,16.54,5.48-16.61h4.6l5.48,16.61,5.06-16.54h5.61l-8.33,24.6H87.49l-5.51-16-5.51,16H71.79Z"/><path class="cls-1" d="M108,221a8.42,8.42,0,0,1-2.49-.36,5.9,5.9,0,0,1-2-1.1,5.1,5.1,0,0,1-1.38-1.8,5.63,5.63,0,0,1-.51-2.46v-.07a5.89,5.89,0,0,1,.56-2.65,5.14,5.14,0,0,1,1.55-1.85,7.19,7.19,0,0,1,2.37-1.1,12.1,12.1,0,0,1,3.06-.37,13,13,0,0,1,2.49.21,16.35,16.35,0,0,1,2.08.56v-.31a3.19,3.19,0,0,0-1-2.55,4.51,4.51,0,0,0-3-.87,12.78,12.78,0,0,0-2.71.26,19.93,19.93,0,0,0-2.46.75l-1.32-4.05a20.86,20.86,0,0,1,3.21-1.08,16.76,16.76,0,0,1,4-.42,11.43,11.43,0,0,1,3.75.54,6.74,6.74,0,0,1,2.57,1.56,6.14,6.14,0,0,1,1.53,2.56,11,11,0,0,1,.49,3.4v10.85h-5.13v-2a7.42,7.42,0,0,1-2.33,1.73A7.74,7.74,0,0,1,108,221Zm1.61-3.66a4.64,4.64,0,0,0,3-.91,2.87,2.87,0,0,0,1.14-2.37v-.94a8.54,8.54,0,0,0-1.55-.51,8.38,8.38,0,0,0-1.84-.19,4.72,4.72,0,0,0-2.68.66,2.18,2.18,0,0,0-1,1.92v.07a2,2,0,0,0,.8,1.68A3.5,3.5,0,0,0,109.58,217.32Z"/><path class="cls-1" d="M128.63,221a12.82,12.82,0,0,1-4.07-.68,13.22,13.22,0,0,1-4-2.14l2.27-3.49a12.65,12.65,0,0,0,3,1.67,8.31,8.31,0,0,0,2.84.56,3,3,0,0,0,1.7-.38,1.2,1.2,0,0,0,.54-1v-.06a1,1,0,0,0-.32-.74,2.59,2.59,0,0,0-.85-.54c-.36-.15-.78-.29-1.24-.43l-1.47-.46a18.44,18.44,0,0,1-2-.68,7.05,7.05,0,0,1-1.79-1,5.19,5.19,0,0,1-1.31-1.59,4.8,4.8,0,0,1-.51-2.3v-.08a5.63,5.63,0,0,1,.54-2.52,5.51,5.51,0,0,1,1.47-1.87,6.14,6.14,0,0,1,2.16-1.15,8.88,8.88,0,0,1,2.67-.39,12.1,12.1,0,0,1,3.61.58,13.2,13.2,0,0,1,3.37,1.59l-2,3.66a16.48,16.48,0,0,0-2.72-1.27,6.92,6.92,0,0,0-2.33-.47,2.47,2.47,0,0,0-1.47.36,1.11,1.11,0,0,0-.49.93v.07a.93.93,0,0,0,.32.68,3.85,3.85,0,0,0,.83.56,11.12,11.12,0,0,0,1.21.5c.45.16.93.33,1.45.49s1.31.46,2,.75a8.52,8.52,0,0,1,1.82,1.06,5.17,5.17,0,0,1,1.32,1.54,4.32,4.32,0,0,1,.53,2.2V215a6.25,6.25,0,0,1-.54,2.7,5,5,0,0,1-1.52,1.87,6.86,6.86,0,0,1-2.29,1.1A10.53,10.53,0,0,1,128.63,221Z"/><path class="cls-1" d="M138.43,195.16H144v4.71h-5.58Zm.14,6.77h5.3v18.7h-5.3Z"/><path class="cls-2" d="M148.16,196.21h10a12,12,0,0,1,3.93.61,8.37,8.37,0,0,1,2.93,1.73,7.62,7.62,0,0,1,1.85,2.67,8.84,8.84,0,0,1,.64,3.43v.07a8.61,8.61,0,0,1-.77,3.74,7.51,7.51,0,0,1-2.11,2.68,9.11,9.11,0,0,1-3.14,1.63,13.32,13.32,0,0,1-3.85.54h-4.09v7.32h-5.37Zm9.63,12.32a4.36,4.36,0,0,0,3.14-1.07,3.46,3.46,0,0,0,1.12-2.63v-.07a3.34,3.34,0,0,0-1.17-2.76,4.93,4.93,0,0,0-3.19-.94h-4.16v7.47Z"/><path class="cls-2" d="M178.52,221.05a10.51,10.51,0,0,1-3.89-.7,8.9,8.9,0,0,1-3.11-2,9.22,9.22,0,0,1-2-3.06,10.07,10.07,0,0,1-.73-3.92v-.07a10.33,10.33,0,0,1,.68-3.77,9.32,9.32,0,0,1,1.9-3.1,8.76,8.76,0,0,1,2.91-2.1,9.85,9.85,0,0,1,7.8.07,8.2,8.2,0,0,1,2.84,2.25,9.31,9.31,0,0,1,1.68,3.25,13.41,13.41,0,0,1,.54,3.82c0,.21,0,.43,0,.66s0,.48-.05.73H174a4.43,4.43,0,0,0,1.58,2.74,4.74,4.74,0,0,0,3,.93,6,6,0,0,0,2.37-.46,8,8,0,0,0,2.16-1.46l3,2.68a9.51,9.51,0,0,1-3.21,2.57A10.07,10.07,0,0,1,178.52,221.05Zm3.41-11.23a5.16,5.16,0,0,0-1.25-2.88,3.5,3.5,0,0,0-2.69-1.1,3.56,3.56,0,0,0-2.7,1.08,5.34,5.34,0,0,0-1.34,2.9Z"/><path class="cls-2" d="M196.1,221a9,9,0,0,1-2.22-.26,4.08,4.08,0,0,1-1.71-.93,4.53,4.53,0,0,1-1.11-1.73,7.65,7.65,0,0,1-.4-2.7v-8.86h-2.24v-4.54h2.24v-4.78H196v4.78h4.4v4.54H196v8c0,1.21.57,1.82,1.71,1.82a5.17,5.17,0,0,0,2.62-.7v4.26a8.79,8.79,0,0,1-1.85.78A8.31,8.31,0,0,1,196.1,221Z"/><polygon class="cls-1" points="61.33 119.88 43.52 119.88 130.41 21.05 216.48 119.88 198.74 119.88 130.36 41.36 61.33 119.88"/><polygon class="cls-1" points="67.64 119.88 130.02 48.09 192.74 119.88 172.68 188.93 88.41 188.93 67.64 119.88"/><path class="cls-2" d="M167.87,131.08a2.75,2.75,0,1,0-5.37,1.2c2.11,9.44-.79,14.85-3.45,17.66.08,2.24.16,4.94.22,6.88a19.46,19.46,0,0,0,5.43-5.08C167.42,148,170.17,141.38,167.87,131.08Z"/><path class="cls-2" d="M135.37,116.15c-2.5,0-7.32-1.89-7.32-1.89-6.19-3.53-14.08-2.7-14.08-2.7h0a8.81,8.81,0,0,0-5.29,2s-4.58-4.5-7.05-4.58c0,0-1.5-.18-1.58,1.67,0,0-5.38,18.33,3.26,25.82,0,0,4.23,4.41,12.6,4.94a17.32,17.32,0,0,0,3.12-.05,181.32,181.32,0,0,0,12.5-14h0C136.82,121.06,135.37,116.15,135.37,116.15Z"/><polygon class="cls-3" points="116.54 131.17 113.97 131.17 115.25 133.99 116.54 131.17"/><path class="cls-4" d="M104.21,65.93v0a3.21,3.21,0,0,0-3.15-3.33,2.77,2.77,0,0,0-2.67,2.09h0a2.77,2.77,0,0,0-2.67-2.09,3.21,3.21,0,0,0-3.15,3.33v0c0,.38,0,4.23,5.82,7.37h0C104.21,70.16,104.22,66.31,104.21,65.93Z"/><path class="cls-5" d="M187.17,189.19a84.27,84.27,0,0,0-16.49-5c-.09-5.55-7.83-10.6-7.83-10.6a9.8,9.8,0,0,1-6.46-9l-1.46-35a28,28,0,0,1-11.88-8.54c-6.87-10.42,4.17-17.92,4.17-17.92-7.08,10.63-1.25,17.71-1.25,17.71,9,9.46,16.88,1,16.88,1,5.21-13.54-5.63-33.34-5.63-33.34-7.08-14.38-23.34-10-23.34-10a34.33,34.33,0,0,1-19-.83c-9-3.75-9.17,4.79-9.17,4.79-8,26.88,29.49,32.4,29.49,32.4.21,5.52-1.15,7.61-1.15,7.61-2.39,6-21,24.27-21,24.27-7.82,6.46-11.26,21.88-11.26,21.88-8.43-4.89,2.82-17.19,2.82-17.19,2.6-4-2.09-1.46-2.09-1.46-4.48,3.54-7.6,9.58-7.6,9.58-4.48,10.72,7.81,22.51,7.81,22.51a12,12,0,0,0,2,1.17c-11.37,1.41-21.79,3.43-27.39,5.89Zm-48.49-14.77c7.26-.07,9.84,4.17,10.75,7-1-.06-2-.12-3-.16-1.12-5.75-12.48-4.31-12.48-4.31,9.69-12-7.71-20.11-7.71-20.11C144.72,157.44,138.68,174.42,138.68,174.42Z"/><path class="cls-3" d="M139.05,93.22a1,1,0,0,1-1-.87,3.84,3.84,0,0,0-1.69-2.91c-1.92-1.19-4.89-.27-4.92-.26a1,1,0,0,1-1.3-.66,1,1,0,0,1,.66-1.31c.16,0,3.88-1.23,6.64.47A5.83,5.83,0,0,1,140.07,92a1,1,0,0,1-.86,1.18Z"/><path class="cls-3" d="M110.54,126.74h0a.69.69,0,0,1-.69-.69,1.68,1.68,0,0,0-.4-1.25,1.51,1.51,0,0,0-1-.36c-1.19,0-1.38,1.61-1.39,1.68a.69.69,0,0,1-.76.61.68.68,0,0,1-.61-.75c.1-1,.81-2.91,2.73-2.91a2.78,2.78,0,0,1,1.94.73,3,3,0,0,1,.84,2.25A.69.69,0,0,1,110.54,126.74Z"/><path class="cls-3" d="M124.73,126.74h0a.68.68,0,0,1-.68-.69,1.72,1.72,0,0,0-.41-1.26,1.53,1.53,0,0,0-1-.35c-1.2,0-1.39,1.61-1.4,1.68a.69.69,0,0,1-1.37-.14c.11-1,.81-2.91,2.73-2.91a2.76,2.76,0,0,1,1.94.73,2.93,2.93,0,0,1,.84,2.25A.69.69,0,0,1,124.73,126.74Z"/><path class="cls-1" d="M85.21,234.67a1.63,1.63,0,0,1,1.09.52,1.81,1.81,0,0,1,.46,1.32,2.13,2.13,0,0,1-.68,1.65,2.9,2.9,0,0,1-2,.61H79.94v-8H84.1a2.56,2.56,0,0,1,1.77.6,2.05,2.05,0,0,1,.66,1.6,1.69,1.69,0,0,1-.42,1.2,1.46,1.46,0,0,1-.9.49Zm-3.3-.62h1.73a1,1,0,0,0,.71-.24.82.82,0,0,0,.26-.65.76.76,0,0,0-.25-.6.93.93,0,0,0-.65-.23h-1.8Zm1.85,3.12a1,1,0,0,0,.73-.24.87.87,0,0,0,.26-.66.8.8,0,0,0-.27-.63,1,1,0,0,0-.68-.23H81.91v1.76Z"/><path class="cls-1" d="M101.06,235.15a3.86,3.86,0,0,1-1,2.76,3.42,3.42,0,0,1-2.59,1,3.5,3.5,0,0,1-2.64-1,3.79,3.79,0,0,1-1-2.76v-4.42h2v4.42a2.16,2.16,0,0,0,.46,1.44,1.5,1.5,0,0,0,1.21.54,1.39,1.39,0,0,0,1.15-.54,2.21,2.21,0,0,0,.44-1.44v-4.42h2Z"/><path class="cls-1" d="M113.8,231.17a2.65,2.65,0,0,1,1.11,1.71l-1.94.4a1.34,1.34,0,0,0-.5-.84,1.53,1.53,0,0,0-.9-.29,1.27,1.27,0,0,0-.78.23.72.72,0,0,0-.3.58c0,.36.21.58.64.68l1.67.37c1.47.32,2.21,1.1,2.21,2.34a2.22,2.22,0,0,1-1,1.91,3.9,3.9,0,0,1-2.36.69,4.29,4.29,0,0,1-2.38-.64,2.49,2.49,0,0,1-1.14-1.8l2-.39a1.45,1.45,0,0,0,1.59,1.18,1.52,1.52,0,0,0,.87-.22.7.7,0,0,0,.31-.6.63.63,0,0,0-.16-.46,1.17,1.17,0,0,0-.58-.25l-1.68-.36c-1.44-.33-2.16-1.1-2.16-2.33a2.19,2.19,0,0,1,.88-1.84,3.6,3.6,0,0,1,2.3-.69A3.79,3.79,0,0,1,113.8,231.17Z"/><path class="cls-1" d="M122.19,238.77v-8h2v8Z"/><path class="cls-1" d="M139.24,238.77H137.6l-4.06-4.65v4.65h-2v-8h1.64l4.07,4.8v-4.8h2Z"/><path class="cls-1" d="M152.9,238.77h-6.26v-8h6.23v1.71h-4.25V234h3.9v1.6h-3.9v1.52h4.28Z"/><path class="cls-1" d="M165.5,231.17a2.63,2.63,0,0,1,1.12,1.71l-1.94.4a1.36,1.36,0,0,0-.51-.84,1.49,1.49,0,0,0-.9-.29,1.27,1.27,0,0,0-.78.23.72.72,0,0,0-.3.58c0,.36.22.58.65.68l1.67.37c1.47.32,2.21,1.1,2.21,2.34a2.22,2.22,0,0,1-.95,1.91,3.9,3.9,0,0,1-2.36.69,4.35,4.35,0,0,1-2.39-.64,2.48,2.48,0,0,1-1.13-1.8l2-.39a1.45,1.45,0,0,0,1.58,1.18,1.47,1.47,0,0,0,.87-.22.71.71,0,0,0,.32-.6.63.63,0,0,0-.16-.46,1.17,1.17,0,0,0-.58-.25l-1.68-.36c-1.44-.33-2.16-1.1-2.16-2.33a2.19,2.19,0,0,1,.88-1.84,3.6,3.6,0,0,1,2.3-.69A3.76,3.76,0,0,1,165.5,231.17Z"/><path class="cls-1" d="M179.06,231.17a2.63,2.63,0,0,1,1.12,1.71l-1.94.4a1.31,1.31,0,0,0-.51-.84,1.49,1.49,0,0,0-.9-.29,1.27,1.27,0,0,0-.78.23.72.72,0,0,0-.3.58c0,.36.22.58.65.68l1.67.37c1.47.32,2.21,1.1,2.21,2.34a2.22,2.22,0,0,1-.95,1.91A3.9,3.9,0,0,1,177,239a4.29,4.29,0,0,1-2.38-.64,2.46,2.46,0,0,1-1.14-1.8l2-.39a1.45,1.45,0,0,0,1.58,1.18,1.47,1.47,0,0,0,.87-.22.71.71,0,0,0,.32-.6.63.63,0,0,0-.16-.46,1.17,1.17,0,0,0-.58-.25l-1.68-.36c-1.44-.33-2.16-1.1-2.16-2.33a2.21,2.21,0,0,1,.87-1.84,3.65,3.65,0,0,1,2.31-.69A3.76,3.76,0,0,1,179.06,231.17Z"/></svg>