<?xml version="1.0" encoding="utf-8"?>
<!-- Generator: Adobe Illustrator 24.1.2, SVG Export Plug-In . SVG Version: 6.00 Build 0)  -->
<svg version="1.1" id="Capa_1" xmlns="http://www.w3.org/2000/svg" xmlns:xlink="http://www.w3.org/1999/xlink" x="0px" y="0px"
	 viewBox="0 0 200 53" style="enable-background:new 0 0 200 53;" xml:space="preserve">
<style type="text/css">
	.st0{fill:#D9D9D9;}
	.st1{fill:#E75E0D;}
	.st2{fill:#E85C0C;}
	.st3{fill:#FFFFFF;}
	.st4{fill:#E10A17;}
	.st5{fill:#1F3159;}
</style>
<g>
	<g>
		<path class="st0" d="M0,16.88h5.75l5.06,16.53l5.47-16.6h4.6l5.47,16.6l5.06-16.53h5.61L28.7,41.46h-4.67l-5.51-15.97l-5.51,15.97
			H8.33L0,16.88z"/>
		<path class="st0" d="M44.5,41.63c-0.88,0-1.71-0.12-2.49-0.37c-0.78-0.24-1.46-0.61-2.04-1.1c-0.58-0.49-1.04-1.09-1.38-1.8
			c-0.34-0.71-0.51-1.53-0.51-2.46v-0.07c0-1.02,0.19-1.91,0.56-2.65c0.37-0.74,0.89-1.36,1.55-1.85c0.66-0.49,1.45-0.85,2.37-1.1
			c0.92-0.24,1.94-0.37,3.05-0.37c0.95,0,1.78,0.07,2.49,0.21c0.71,0.14,1.4,0.33,2.07,0.56v-0.31c0-1.12-0.34-1.96-1.01-2.55
			c-0.67-0.58-1.67-0.87-3-0.87c-1.02,0-1.92,0.09-2.7,0.26c-0.78,0.17-1.6,0.42-2.46,0.75l-1.32-4.05c1.02-0.44,2.09-0.8,3.21-1.08
			c1.12-0.28,2.46-0.42,4.05-0.42c1.46,0,2.71,0.18,3.75,0.54c1.03,0.36,1.89,0.88,2.56,1.55c0.7,0.7,1.21,1.55,1.53,2.56
			c0.33,1.01,0.49,2.14,0.49,3.4v10.85h-5.13v-2.02c-0.65,0.72-1.43,1.3-2.34,1.73C46.9,41.42,45.8,41.63,44.5,41.63z M46.1,37.97
			c1.26,0,2.26-0.3,3.02-0.91c0.76-0.6,1.13-1.39,1.13-2.37v-0.94c-0.46-0.21-0.98-0.38-1.55-0.51c-0.57-0.13-1.18-0.19-1.83-0.19
			c-1.14,0-2.03,0.22-2.68,0.66c-0.65,0.44-0.98,1.08-0.98,1.92v0.07c0,0.72,0.27,1.28,0.8,1.67C44.54,37.78,45.24,37.97,46.1,37.97
			z"/>
		<path class="st0" d="M65.14,41.63c-1.33,0-2.68-0.23-4.06-0.68s-2.7-1.17-3.96-2.14l2.27-3.49c1.02,0.74,2.04,1.3,3.05,1.67
			c1.01,0.37,1.96,0.56,2.84,0.56c0.77,0,1.33-0.13,1.69-0.38c0.36-0.26,0.54-0.59,0.54-1.01v-0.07c0-0.28-0.1-0.52-0.31-0.73
			c-0.21-0.21-0.49-0.39-0.85-0.54c-0.36-0.15-0.77-0.3-1.24-0.44c-0.47-0.14-0.95-0.29-1.46-0.45c-0.65-0.19-1.31-0.41-1.97-0.68
			c-0.66-0.27-1.26-0.62-1.8-1.05c-0.54-0.43-0.97-0.96-1.31-1.59c-0.34-0.63-0.51-1.39-0.51-2.3v-0.07c0-0.95,0.18-1.8,0.54-2.53
			s0.85-1.35,1.46-1.87c0.62-0.51,1.34-0.89,2.16-1.15c0.82-0.26,1.71-0.38,2.67-0.38c1.19,0,2.39,0.19,3.61,0.58
			c1.22,0.38,2.34,0.91,3.37,1.59l-2.02,3.66c-0.93-0.53-1.84-0.96-2.72-1.27c-0.88-0.31-1.66-0.47-2.34-0.47
			c-0.65,0-1.14,0.12-1.46,0.37c-0.33,0.24-0.49,0.55-0.49,0.92v0.07c0,0.26,0.1,0.48,0.31,0.68c0.21,0.2,0.49,0.38,0.84,0.56
			c0.35,0.17,0.75,0.34,1.2,0.51c0.45,0.16,0.94,0.33,1.45,0.49c0.65,0.21,1.31,0.46,1.99,0.75s1.28,0.64,1.81,1.06
			c0.53,0.42,0.98,0.93,1.32,1.53c0.35,0.6,0.52,1.34,0.52,2.2v0.07c0,1.05-0.18,1.95-0.54,2.7c-0.36,0.76-0.87,1.38-1.52,1.87
			c-0.65,0.49-1.41,0.85-2.28,1.1C67.08,41.51,66.14,41.63,65.14,41.63z"/>
		<path class="st0" d="M74.94,15.83h5.58v4.71h-5.58V15.83z M75.08,22.59h5.3v18.69h-5.3V22.59z"/>
		<path class="st1" d="M84.67,16.88h9.97c1.46,0,2.77,0.2,3.92,0.61c1.15,0.41,2.13,0.98,2.93,1.73c0.8,0.74,1.42,1.63,1.85,2.67
			c0.43,1.03,0.64,2.18,0.64,3.43v0.07c0,1.42-0.26,2.66-0.77,3.73c-0.51,1.07-1.22,1.96-2.11,2.69c-0.9,0.72-1.94,1.26-3.14,1.62
			c-1.2,0.36-2.48,0.54-3.85,0.54h-4.08v7.32h-5.37V16.88z M94.29,29.19c1.35,0,2.39-0.35,3.14-1.06c0.74-0.71,1.12-1.59,1.12-2.63
			v-0.07c0-1.21-0.39-2.13-1.17-2.75c-0.78-0.63-1.84-0.94-3.19-0.94h-4.15v7.46H94.29z"/>
		<path class="st1" d="M115.01,41.7c-1.39,0-2.69-0.23-3.89-0.7c-1.2-0.46-2.23-1.13-3.1-1.99c-0.87-0.86-1.55-1.88-2.04-3.05
			c-0.49-1.17-0.73-2.48-0.73-3.92v-0.07c0-1.33,0.23-2.58,0.68-3.77c0.45-1.19,1.09-2.22,1.9-3.1c0.81-0.88,1.78-1.58,2.91-2.09
			c1.13-0.51,2.38-0.77,3.75-0.77c1.56,0,2.91,0.28,4.05,0.84c1.14,0.56,2.09,1.31,2.84,2.25c0.76,0.94,1.31,2.02,1.67,3.24
			c0.36,1.22,0.54,2.49,0.54,3.82c0,0.21-0.01,0.43-0.02,0.66c-0.01,0.23-0.03,0.48-0.05,0.73h-13.01c0.26,1.21,0.78,2.12,1.59,2.74
			c0.8,0.62,1.8,0.92,2.98,0.92c0.88,0,1.67-0.15,2.37-0.45c0.7-0.3,1.42-0.79,2.16-1.46l3.03,2.68c-0.88,1.09-1.95,1.95-3.21,2.56
			C118.18,41.4,116.7,41.7,115.01,41.7z M118.42,30.48c-0.16-1.19-0.58-2.14-1.26-2.88c-0.67-0.73-1.57-1.1-2.69-1.1
			s-2.02,0.36-2.7,1.08c-0.69,0.72-1.13,1.69-1.34,2.89H118.42z"/>
		<path class="st1" d="M132.58,41.6c-0.81,0-1.55-0.09-2.21-0.26s-1.23-0.48-1.71-0.92c-0.48-0.44-0.85-1.02-1.12-1.73
			c-0.27-0.71-0.4-1.61-0.4-2.7v-8.86h-2.23v-4.53h2.23v-4.78h5.3v4.78h4.39v4.53h-4.39v8.01c0,1.21,0.57,1.82,1.71,1.82
			c0.93,0,1.8-0.23,2.62-0.7v4.25c-0.56,0.33-1.17,0.59-1.85,0.78C134.24,41.5,133.46,41.6,132.58,41.6z"/>
	</g>
	<g>
		<g>
			<polygon class="st0" points="151.76,31.09 146.22,31.09 173.24,0.36 200,31.09 194.49,31.09 173.22,6.68 			"/>
		</g>
		<polygon class="st0" points="153.72,31.09 173.12,8.77 192.62,31.09 186.42,51.86 160.22,51.86 		"/>
		<path class="st2" d="M184.89,34.57c-0.1-0.46-0.56-0.75-1.02-0.65c-0.46,0.1-0.75,0.56-0.65,1.02c0.66,2.94-0.24,4.62-1.07,5.49
			c0.03,0.7,0.05,1.53,0.07,2.14c0.43-0.26,1.09-0.76,1.69-1.58C184.75,39.83,185.6,37.77,184.89,34.57z"/>
		<path class="st2" d="M174.78,29.93c-0.78,0-2.27-0.59-2.27-0.59c-1.93-1.1-4.38-0.84-4.38-0.84l0,0c-0.61,0.05-1.2,0.22-1.64,0.62
			c0,0-1.42-1.4-2.19-1.42c0,0-0.47-0.05-0.49,0.52c0,0-1.67,5.7,1.01,8.03c0,0,1.32,1.37,3.92,1.53c0,0,0.39,0.04,0.97-0.01
			c1.24-1.28,2.86-3.01,3.89-4.35l0,0C175.23,31.46,174.78,29.93,174.78,29.93z"/>
		<polygon class="st3" points="168.93,34.6 168.13,34.6 168.53,35.48 		"/>
		<path id="XMLID_9_" class="st4" d="M165.09,14.32C165.09,14.31,165.09,14.31,165.09,14.32c0-0.55-0.39-1.04-0.98-1.04
			c-0.47,0-0.74,0.34-0.83,0.65l0,0c-0.09-0.31-0.36-0.65-0.83-0.65c-0.59,0-0.98,0.5-0.98,1.04c0,0,0,0.01,0,0.01
			c0,0.12,0,1.31,1.81,2.29v0l0,0l0,0c0,0,0,0,0,0l0,0v0C165.09,15.63,165.1,14.43,165.09,14.32z"/>
		<path class="st5" d="M190.89,52.64c-1.4-0.62-3.16-1.14-5.13-1.55c-0.03-1.73-2.43-3.3-2.43-3.3c-2.07-0.84-2.01-2.79-2.01-2.79
			l-0.45-10.88c-2.27-0.78-3.69-2.66-3.69-2.66c-2.14-3.24,1.3-5.57,1.3-5.57c-2.2,3.3-0.39,5.51-0.39,5.51
			c2.8,2.94,5.25,0.32,5.25,0.32c1.62-4.21-1.75-10.37-1.75-10.37c-2.2-4.47-7.26-3.11-7.26-3.11c-3.3,0.78-5.9-0.26-5.9-0.26
			c-2.79-1.17-2.85,1.49-2.85,1.49c-2.49,8.36,9.17,10.07,9.17,10.07c0.06,1.72-0.36,2.36-0.36,2.36c-0.75,1.88-6.54,7.55-6.54,7.55
			c-2.43,2.01-3.5,6.8-3.5,6.8c-2.62-1.52,0.87-5.35,0.87-5.35c0.81-1.23-0.65-0.45-0.65-0.45c-1.39,1.1-2.36,2.98-2.36,2.98
			c-1.39,3.33,2.43,7,2.43,7c0.17,0.13,0.38,0.25,0.61,0.36c-3.54,0.44-6.78,1.06-8.52,1.83H190.89z M175.81,48.05
			c2.26-0.02,3.06,1.3,3.34,2.17c-0.31-0.02-0.61-0.04-0.92-0.05c-0.35-1.79-3.88-1.34-3.88-1.34c3.01-3.73-2.4-6.25-2.4-6.25
			C177.69,42.77,175.81,48.05,175.81,48.05z"/>
		<g>
			<path class="st3" d="M175.93,22.8c-0.16,0-0.29-0.11-0.32-0.27c-0.07-0.43-0.24-0.73-0.53-0.91c-0.6-0.37-1.52-0.08-1.53-0.08
				c-0.17,0.05-0.35-0.04-0.4-0.21c-0.05-0.17,0.04-0.35,0.21-0.4c0.05-0.02,1.21-0.38,2.07,0.14c0.45,0.28,0.73,0.73,0.82,1.35
				c0.03,0.18-0.09,0.34-0.27,0.37C175.96,22.8,175.94,22.8,175.93,22.8z"/>
		</g>
		<g>
			<path class="st3" d="M167.06,33.22L167.06,33.22c-0.12,0-0.21-0.1-0.21-0.22c0-0.18-0.04-0.31-0.13-0.39
				c-0.12-0.12-0.3-0.11-0.3-0.11c-0.37,0-0.43,0.5-0.43,0.52c-0.01,0.12-0.12,0.2-0.24,0.19c-0.12-0.01-0.2-0.12-0.19-0.23
				c0.03-0.31,0.25-0.91,0.85-0.91c0.03,0,0.35-0.01,0.6,0.23c0.17,0.17,0.26,0.4,0.26,0.7C167.27,33.13,167.18,33.22,167.06,33.22z
				"/>
		</g>
		<g>
			<path class="st3" d="M171.47,33.22L171.47,33.22c-0.12,0-0.21-0.1-0.21-0.22c0-0.18-0.04-0.31-0.13-0.39
				c-0.12-0.11-0.3-0.11-0.3-0.11c-0.37,0-0.43,0.5-0.43,0.52c-0.01,0.12-0.12,0.2-0.24,0.19c-0.12-0.01-0.2-0.12-0.19-0.23
				c0.03-0.31,0.25-0.91,0.85-0.91c0.03,0,0.35-0.01,0.6,0.23c0.17,0.17,0.26,0.4,0.26,0.7C171.69,33.13,171.59,33.22,171.47,33.22z
				"/>
		</g>
	</g>
</g>
</svg>
