<svg xmlns="http://www.w3.org/2000/svg" viewBox="0 0 46.27 60.59"><defs><style>.cls-1{fill:#122e5c;}</style></defs><g id="Layer_2" data-name="Layer 2"><g id="Layer_1-2" data-name="Layer 1"><path class="cls-1" d="M26.36,4.13a1.35,1.35,0,0,1,1,.4l14.4,14.4a1.39,1.39,0,0,1,.41,1V55.08a1.38,1.38,0,0,1-1.38,1.38H5.51a1.38,1.38,0,0,1-1.38-1.38V5.51A1.38,1.38,0,0,1,5.51,4.13H26.36m0-4.13H5.51A5.51,5.51,0,0,0,0,5.51V55.08a5.51,5.51,0,0,0,5.51,5.51H40.76a5.51,5.51,0,0,0,5.51-5.51V19.91A5.49,5.49,0,0,0,44.65,16L30.25,1.61A5.5,5.5,0,0,0,26.36,0Z"/><path class="cls-1" d="M42.14,19.42H33.05a6.21,6.21,0,0,1-6.2-6.2V4.13a2.07,2.07,0,0,1,4.13,0v9.09a2.07,2.07,0,0,0,2.07,2.06h9.09a2.07,2.07,0,0,1,0,4.14Z"/><path class="cls-1" d="M36.9,27.26H24.51a2.07,2.07,0,1,1,0-4.13H36.9a2.07,2.07,0,1,1,0,4.13Z"/><path class="cls-1" d="M12.25,29.19a2.09,2.09,0,0,1-1.46-.6l-2.2-2.21a2.06,2.06,0,0,1,2.92-2.92l.74.75,3.5-3.5a2.06,2.06,0,0,1,2.92,2.92l-5,5A2.1,2.1,0,0,1,12.25,29.19Z"/><path class="cls-1" d="M37,39.38H24.65a2.07,2.07,0,1,1,0-4.13H37a2.07,2.07,0,1,1,0,4.13Z"/><path class="cls-1" d="M12.39,41.31a2,2,0,0,1-1.46-.61l-2.2-2.2a2.06,2.06,0,0,1,2.92-2.92l.74.74,3.5-3.49a2.06,2.06,0,1,1,2.92,2.92l-5,5A2,2,0,0,1,12.39,41.31Z"/><path class="cls-1" d="M37.18,51.5H24.79a2.07,2.07,0,1,1,0-4.13H37.18a2.07,2.07,0,0,1,0,4.13Z"/><path class="cls-1" d="M12.53,53.43a2.07,2.07,0,0,1-1.46-.61l-2.2-2.2a2.06,2.06,0,1,1,2.92-2.92l.74.74,3.5-3.5A2.06,2.06,0,1,1,19,47.86l-5,5A2.07,2.07,0,0,1,12.53,53.43Z"/></g></g></svg>