<?xml version="1.0" encoding="utf-8"?>
<!-- Generator: Adobe Illustrator 24.1.2, SVG Export Plug-In . SVG Version: 6.00 Build 0)  -->
<svg version="1.1" id="Capa_1" xmlns="http://www.w3.org/2000/svg" xmlns:xlink="http://www.w3.org/1999/xlink" x="0px" y="0px"
	 viewBox="0 0 54.3 61.7" style="enable-background:new 0 0 54.3 61.7;" xml:space="preserve">
<style type="text/css">
	.st0{fill:#122E5C;}
</style>
<path class="st0" d="M51.8,43.4c-3.3-3.3-6.5-7.6-5.5-15.1c0.4-2.5,0.5-5.1,0.3-7.7c2.6-2.2,4.2-5.5,4.2-9C50.8,5.3,45.6,0,39.2,0
	c-2.9,0-5.5,1-7.5,2.7c-1.5-0.2-2.9-0.3-4.4-0.3c-4.5-0.3-8.9,0.9-12.7,3.4c-7.7,5-7.4,16.2-6.6,22.5c1,7.5-2.2,11.8-5.4,15.1
	c-3.2,3.3-2.6,6-2.2,7c0.8,1.8,2.6,2.9,4.5,2.9h12.1c1,4.8,5.2,8.4,10.3,8.4c5.1,0,9.3-3.6,10.3-8.4h12.1c1.9,0,3.7-1.1,4.5-2.9
	C54.4,49.4,55,46.7,51.8,43.4z M39.1,4.1c4.2,0,7.6,3.4,7.6,7.6s-3.4,7.6-7.6,7.6s-7.6-3.4-7.6-7.6C31.6,7.5,35,4.1,39.1,4.1z
	 M26.9,57.8c-2.8-0.1-5.1-2-5.8-4.5h12.1C32.4,56,29.9,57.9,26.9,57.8z M50.2,48.8c-0.1,0.2-0.4,0.4-0.7,0.3H4.8
	c-0.3,0-0.5-0.1-0.7-0.3c-0.2-0.3,0-1.2,1.4-2.4c3.7-3.8,7.9-9.2,6.6-18.5c-0.6-4.3-1.3-14.6,4.7-18.5c3.1-2,6.7-2.9,10.4-2.7
	c0.4,0,0.9,0,1.3,0c-0.7,1.5-1.2,3.2-1.2,5c0,6.5,5.2,11.7,11.7,11.7c1.2,0,2.3-0.2,3.4-0.5c0,1.6-0.1,3.3-0.4,4.9
	c-1.2,9.3,2.9,14.8,6.6,18.5C50.2,47.7,50.3,48.5,50.2,48.8z"/>
</svg>
