<?xml version="1.0" encoding="utf-8"?>
<!-- Generator: Adobe Illustrator 24.1.2, SVG Export Plug-In . SVG Version: 6.00 Build 0)  -->
<svg version="1.1" id="Capa_1" xmlns="http://www.w3.org/2000/svg" xmlns:xlink="http://www.w3.org/1999/xlink" x="0px" y="0px"
	 viewBox="0 0 53.7 58.8" style="enable-background:new 0 0 53.7 58.8;" xml:space="preserve">
<style type="text/css">
	.st0{fill:#122E5C;}
</style>
<g>
	<path class="st0" d="M23.9,3.7c-2.3-2.3-5.9-2.3-8.2,0L15.5,4c0,0,0,0,0,0c-2.1,2.1-2.2,5.3-0.5,7.5c0.7,8.7-7.5,15.7-7.6,15.8
		l-0.1,0.1l-5.3,5.3c-2.1,2.1-2.3,5.4-0.6,7.7c-0.8,1.1-1.2,2.4-1.2,3.8C0,47.9,3,51,6.7,51c1.4,0,2.7-0.4,3.9-1.2
		c1.1,0.9,2.4,1.4,3.8,1.4c0.8,0,1.6-0.2,2.4-0.5l6.3,6.3c1.1,1.1,2.6,1.7,4.2,1.8c1.6,0,3.1-0.6,4.2-1.7c2.4-2.3,2.4-6.1,0.1-8.5
		l-6-6c0.3-0.3,0.6-0.5,0.9-0.8c0,0,0.1-0.1,0.1-0.1c0,0,0,0,0,0c0,0,0,0,0,0c2.7-2.3,7.4-5.4,12.9-5.5c1,0.9,2.4,1.4,3.8,1.4
		c1.5,0,3-0.6,4.1-1.7l0.3-0.3c2.3-2.3,2.3-5.9,0-8.2L23.9,3.7z M18.9,15.5l16.9,16.9c-4.3,0.9-7.9,3-10.5,5L14,26.2
		C16,23.5,18.2,19.9,18.9,15.5z M4.9,46.2c-0.7-0.7-0.9-1.7-0.6-2.5l3.2,3.2C6.6,47,5.6,46.8,4.9,46.2z M13.1,46.6l-8.3-8.3
		c-0.7-0.7-0.7-1.9,0-2.6l5.3-5.2c0.2-0.2,0.6-0.6,1.2-1.1l10.8,10.8c-0.4,0.4-0.8,0.8-0.9,1c0,0,0,0,0,0c-0.1,0.1-0.1,0.1-0.1,0.2
		l-5,5c-0.2,0.1-0.4,0.2-0.5,0.4c0,0-0.1,0.1-0.1,0.2C14.6,47.3,13.7,47.2,13.1,46.6z M28.7,51.6c0.7,0.7,0.7,1.9-0.1,2.6
		s-1.9,0.7-2.6-0.1l-6-6l2.6-2.6L28.7,51.6C28.6,51.6,28.7,51.6,28.7,51.6z M44.8,32.7L44.5,33c0,0,0,0,0,0c-0.6,0.6-1.7,0.6-2.3,0
		L18.4,9.2c0,0,0,0,0,0c-0.6-0.6-0.6-1.7,0-2.3l0.3-0.3c0.3-0.3,0.7-0.5,1.2-0.5c0.4,0,0.9,0.2,1.2,0.5l23.8,23.8
		c0.3,0.3,0.5,0.7,0.5,1.2C45.2,32,45.1,32.4,44.8,32.7z"/>
	<path class="st0" d="M41.7,13.9c0.5,0,1.1-0.2,1.5-0.6l4.1-4.1c0.8-0.8,0.8-2.1,0-2.9s-2.1-0.8-2.9,0l-4.1,4.1c0,0,0,0,0,0
		c-0.8,0.8-0.8,2.1,0,2.9C40.6,13.7,41.1,13.9,41.7,13.9z"/>
	<path class="st0" d="M35.4,9.9C35.4,9.9,35.4,9.9,35.4,9.9c1.1,0,2.1-0.9,2.1-2.1V2.1c0-0.1,0-0.2,0-0.3c-0.1-1.1-1.1-2-2.2-1.9
		c-1.1,0.1-2,1.1-1.9,2.2v5.8C33.3,9,34.3,9.9,35.4,9.9z"/>
	<path class="st0" d="M51.6,16.2h-5.8c-1,0.1-1.8,0.9-1.9,1.9c-0.1,1.1,0.8,2.1,1.9,2.2h5.8c0.1,0,0.2,0,0.3,0
		c1.1-0.1,2-1.1,1.9-2.2C53.8,17,52.8,16.2,51.6,16.2z"/>
</g>
</svg>
