<?xml version="1.0" encoding="utf-8"?>
<!-- Generator: Adobe Illustrator 24.1.2, SVG Export Plug-In . SVG Version: 6.00 Build 0)  -->
<svg version="1.1" id="Capa_1" xmlns="http://www.w3.org/2000/svg" xmlns:xlink="http://www.w3.org/1999/xlink" x="0px" y="0px"
	 viewBox="0 0 60.6 54" style="enable-background:new 0 0 60.6 54;" xml:space="preserve">
<style type="text/css">
	.st0{fill:#122E5C;}
</style>
<path class="st0" d="M60.3,11.9c0-0.1-0.1-0.1-0.1-0.2c0-0.3-0.1-0.6-0.3-0.9l-4.9-7.5C53.5,1.2,51.2,0,48.7,0H12
	C9.6,0,7.4,1.2,6,3.1l-5.5,7.6c0,0.1-0.1,0.1-0.1,0.2c-0.3,0.5-0.4,1-0.3,1.5c-0.6,3.9,1.3,7.9,4.9,9.7c0.6,0.4,1.3,0.6,2,0.8v23.7
	c0,4.1,3.3,7.4,7.4,7.4h31.4c4.1,0,7.4-3.3,7.4-7.4V23.1c0.9-0.2,1.7-0.5,2.5-0.9C59.5,20.3,61.4,16,60.3,11.9z M35.2,49.9h-10V36.4
	c0-0.7,0.6-1.3,1.3-1.3h7.5c0.7,0,1.3,0.6,1.3,1.3V49.9z M45.9,49.9h-6.5V36.4c0-3-2.4-5.4-5.4-5.4h-7.5c0,0,0,0,0,0
	c-3,0-5.4,2.4-5.4,5.4v13.5h-6.5c-1.8,0-3.3-1.5-3.3-3.3V23.4c1.2-0.1,2.3-0.5,3.3-1c1.3,2.1,3.8,4.1,8.1,4.1c3.5,0,5.9-1.4,7.4-3
	c1.4,1.6,3.7,3,7.3,3c4.3,0,6.9-2.1,8.2-4.1c1.1,0.6,2.4,1,3.7,1.1v23.2C49.1,48.5,47.7,49.9,45.9,49.9z M53.8,18.6
	c-2.2,1.2-5.6,1.3-7.5-0.8c-0.8-0.9-2.1-0.9-2.9-0.2c-0.3,0.3-0.5,0.7-0.6,1c0,0,0,0,0,0.1c0,0.1-0.8,3.7-5.4,3.7
	c-4.3,0-5-3-5.1-3.6l-0.2,0c-0.2-0.6-0.6-1.1-1.2-1.3c-1.1-0.4-2.3,0.1-2.7,1.2c0,0.1-0.8,3.7-5.4,3.7c-4.2,0-5-2.9-5.1-3.5
	c-0.1-0.5-0.3-0.9-0.7-1.3c-0.9-0.8-2.2-0.7-2.9,0.2c-1.7,2-4.8,1.8-6.8,0.7c-2.2-1.1-3.4-3.6-2.7-6l5-7C10,4.6,10.9,4.1,12,4.1
	h36.7c1.1,0,2.1,0.6,2.7,1.5l4.8,7.2c0,0.1,0,0.1,0,0.2C56.9,15.2,55.9,17.6,53.8,18.6z"/>
</svg>
