<?xml version="1.0" encoding="utf-8"?>
<!-- Generator: Adobe Illustrator 24.1.2, SVG Export Plug-In . SVG Version: 6.00 Build 0)  -->
<svg version="1.1" id="Capa_1" xmlns="http://www.w3.org/2000/svg" xmlns:xlink="http://www.w3.org/1999/xlink" x="0px" y="0px"
	 viewBox="0 0 57 57" style="enable-background:new 0 0 57 57;" xml:space="preserve">
<style type="text/css">
	.st0{fill:#122E5C;}
</style>
<g>
	<path class="st0" d="M28.5,0C12.7,0,0,12.8,0,28.5C0,44.2,12.8,57,28.5,57C44.2,57,57,44.2,57,28.5c0,0,0,0,0,0
		C57,12.7,44.2,0,28.5,0z M28.5,52.9C15,52.9,4.1,42,4.1,28.5S15,4.1,28.5,4.1v0C42,4.1,52.9,15,52.9,28.5
		C52.9,42,42,52.9,28.5,52.9z"/>
	<path class="st0" d="M28.5,43.9C28.5,43.9,28.5,43.9,28.5,43.9c-1.1,0-2.1,0.9-2.1,2.1c0,1.1,0.9,2.1,2.1,2.1
		c1.1,0,2.1-0.9,2.1-2.1C30.5,44.9,29.6,43.9,28.5,43.9z"/>
	<path class="st0" d="M28.4,9.7C22.1,9.7,17,14.8,17,21.1c0,0.1,0,0.2,0,0.3c0.1,1.1,1.1,2,2.2,1.9c1.1-0.1,2-1.1,1.9-2.2
		c0-4,3.2-7.2,7.2-7.2s7.2,3.2,7.2,7.2c0,4-1.2,5-4.9,7.2c-5.2,3-4.3,10.5-4.3,10.8c0.1,1,1,1.8,2,1.8l0.3,0c0,0,0,0,0,0
		c1.1-0.1,1.9-1.2,1.8-2.3c0,0-0.5-5.1,2.3-6.7c4.1-2.3,7-4.5,7-10.7C39.7,14.8,34.6,9.7,28.4,9.7z"/>
</g>
</svg>
