<?xml version="1.0" encoding="utf-8"?>
<!-- Generator: Adobe Illustrator 24.1.2, SVG Export Plug-In . SVG Version: 6.00 Build 0)  -->
<svg version="1.1" id="Capa_1" xmlns="http://www.w3.org/2000/svg" xmlns:xlink="http://www.w3.org/1999/xlink" x="0px" y="0px"
	 viewBox="0 0 60.6 55" style="enable-background:new 0 0 60.6 55;" xml:space="preserve">
<style type="text/css">
	.st0{fill:#122E5C;}
</style>
<path class="st0" d="M56,5.6c-0.9-1.1-2-2-3.1-2.8C45.5-2.3,35.4-0.4,30.3,7c-3-4.4-7.9-7-13.2-7C12.3,0,7.8,2,4.6,5.6
	c-3,3.5-4.7,8.1-4.6,12.7C0.2,24.3,2.4,30,6.3,34.4C9.9,38.7,15,43.1,21,48.2c2.2,1.8,4.4,3.8,6.8,5.8l0.1,0.1
	c0.7,0.6,1.5,0.9,2.4,0.9c0.9,0,1.8-0.3,2.5-0.9l0.1-0.1c2.4-2.1,4.6-4,6.8-5.8h0.1c5.9-5.1,11.1-9.4,14.7-13.7
	c3.9-4.5,6.1-10.2,6.3-16.1C60.7,13.7,59,9.1,56,5.6z M51.2,31.7C47.8,35.8,42.8,40.1,37,45l-0.1,0.1c-2.1,1.8-4.3,3.7-6.6,5.7
	c-2.3-2-4.5-3.9-6.6-5.7c-5.8-4.9-10.8-9.3-14.2-13.3C6.2,28,4.3,23.3,4.1,18.3c-0.1-3.7,1.2-7.2,3.6-10c2.4-2.7,5.8-4.2,9.3-4.2
	c4.1,0.1,7.9,2.2,10.1,5.7c0.5,0.7,0.9,1.3,1.3,2.1c0.4,0.7,1.1,1.1,1.8,1.1c0.8,0,1.5-0.4,1.8-1.1c0.4-0.7,0.8-1.4,1.3-2.1
	c0.6-1,1.4-2,2.4-2.7c5.1-4.4,12.8-3.8,17.2,1.3c2.4,2.8,3.7,6.3,3.6,10C56.3,23.3,54.5,28,51.2,31.7z"/>
</svg>
