<?xml version="1.0" encoding="utf-8"?>
<!-- Generator: Adobe Illustrator 24.1.2, SVG Export Plug-In . SVG Version: 6.00 Build 0)  -->
<svg version="1.1" id="Capa_1" xmlns="http://www.w3.org/2000/svg" xmlns:xlink="http://www.w3.org/1999/xlink" x="0px" y="0px"
	 viewBox="0 0 58.5 57.3" style="enable-background:new 0 0 58.5 57.3;" xml:space="preserve">
<style type="text/css">
	.st0{fill:#122E5C;}
</style>
<g>
	<path class="st0" d="M38.3,39.1c-1.1,0-2.1,0.9-2.1,2.1v12H4.1v-49h32.1v11.7c0,1.1,0.9,2.1,2.1,2.1c1.1,0,2.1-0.9,2.1-2.1V2.1
		C40.4,1,39.5,0,38.3,0H2.1C0.9,0,0,0.9,0,2.1v53.2c0,1.1,0.9,2.1,2.1,2h36.2h0.1c1.1,0,2-1,2-2.1v-14C40.3,40,39.4,39.1,38.3,39.1z
		"/>
	<path class="st0" d="M57.9,27.2l-7.4-7.4c-0.8-0.8-2.1-0.8-2.9,0c-0.8,0.8-0.8,2.1,0,2.9l3.8,3.8h-27c-1,0.1-1.8,0.9-1.9,1.9
		c-0.1,1.1,0.8,2.1,1.9,2.2h27.1l-3.8,3.8C47.2,34.9,47,35.5,47,36c0,1.1,0.9,2.1,2.1,2.1c0.5,0,1.1-0.2,1.5-0.6l7.4-7.4
		C58.7,29.3,58.7,28,57.9,27.2z"/>
</g>
</svg>
