<?xml version="1.0" encoding="utf-8"?>
<!-- Generator: Adobe Illustrator 24.1.2, SVG Export Plug-In . SVG Version: 6.00 Build 0)  -->
<svg version="1.1" id="Capa_1" xmlns="http://www.w3.org/2000/svg" xmlns:xlink="http://www.w3.org/1999/xlink" x="0px" y="0px"
	 viewBox="0 0 61.4 56.3" style="enable-background:new 0 0 61.4 56.3;" xml:space="preserve">
<style type="text/css">
	.st0{fill:#122E5C;}
</style>
<g>
	<path class="st0" d="M30.7,23.4c-5.7,0-11.4,2.9-15.7,8.2c-3.9,4.7-6.2,10.6-6.2,15.9c-0.2,2.6,0.9,5.1,2.9,6.9
		c1.9,1.4,4.2,2.1,6.6,2c2.5-0.1,4.9-0.4,7.3-0.9c1.7-0.4,3.4-0.6,5.2-0.7c1.6,0.1,3.2,0.3,4.7,0.7c5,0.9,10.6,2,14.3-1.1
		c2-1.7,3-4.2,2.9-6.8c0-5.3-2.3-11.2-6.2-15.9C42,26.3,36.4,23.4,30.7,23.4z M47.1,51.1c-2.3,1.8-6.9,1-11,0.2
		c-1.8-0.4-3.6-0.6-5.5-0.7c-2,0.1-4,0.3-5.9,0.8c-2.2,0.5-4.4,0.7-6.6,0.8c-1.4,0.1-2.8-0.3-3.9-1.1c-1-1-1.5-2.3-1.4-3.7
		c0-4.3,2-9.2,5.2-13.2c3.6-4.3,8-6.7,12.6-6.7c4.5,0,9,2.4,12.6,6.7c3.2,3.7,5,8.4,5.3,13.2C48.6,48.8,48.1,50.1,47.1,51.1z"/>
	<path class="st0" d="M38.1,20.7c0.3,0,0.6,0.1,0.9,0.1c1.8-0.1,3.4-0.9,4.6-2.2c1.8-1.9,2.9-4.3,3.3-6.9c0.5-2.6,0.2-5.2-0.8-7.7
		c-0.7-2-2.4-3.5-4.4-3.9c-2.1-0.2-4.1,0.6-5.5,2.1c-1.8,1.9-2.9,4.3-3.3,6.9c-0.5,2.6-0.2,5.2,0.8,7.7
		C34.4,18.8,36.1,20.3,38.1,20.7z M37,9.9c0.3-1.8,1.1-3.4,2.2-4.8c0.4-0.5,1-0.9,1.7-1l0.1,0c0.6,0.1,1.1,0.9,1.4,1.5
		c0.7,1.7,0.8,3.5,0.5,5.3c-0.3,1.8-1.1,3.4-2.2,4.8c-0.5,0.6-1.3,1.1-1.8,1c-0.6-0.1-1.1-0.8-1.4-1.5C36.8,13.5,36.7,11.6,37,9.9z"
		/>
	<path class="st0" d="M17.8,18.6c1.2,1.3,2.8,2.2,4.6,2.2c0.3,0,0.6,0,0.9-0.1c2-0.5,3.7-1.9,4.4-3.9c1-2.4,1.3-5.1,0.8-7.7
		c-0.4-2.6-1.6-5-3.3-6.9c-1.4-1.6-3.4-2.4-5.5-2.1c-2,0.5-3.7,1.9-4.4,3.9c-1,2.4-1.3,5.1-0.8,7.6C14.8,14.2,16,16.6,17.8,18.6z
		 M19,5.7c0.3-0.7,0.8-1.4,1.4-1.5h0.1c0.7,0.1,1.3,0.5,1.7,1c1.2,1.3,2,3,2.2,4.8c0.3,1.8,0.2,3.6-0.5,5.3
		c-0.3,0.7-0.8,1.5-1.4,1.5c-0.5,0.1-1.3-0.5-1.8-1c-1.2-1.3-2-3-2.2-4.8C18.1,9.2,18.3,7.3,19,5.7z"/>
	<path class="st0" d="M57.5,14.3c-1.3-0.5-2.8-0.4-4.1,0.3c-2.4,1.3-4.2,3.5-5,6.1c-1.7,4.8-0.3,9.7,3.1,11c0.5,0.2,1.1,0.3,1.7,0.3
		c0.8,0,1.7-0.2,2.4-0.6c2.4-1.3,4.2-3.5,5-6.1C62.3,20.5,60.9,15.5,57.5,14.3z M56.8,23.9c-0.5,1.6-1.5,2.9-2.9,3.7
		c-0.3,0.2-0.6,0.2-0.9,0.1c-0.8-0.3-1.6-2.9-0.6-5.7c0.5-1.5,1.5-2.9,2.9-3.7c0.2-0.1,0.4-0.2,0.7-0.2c0.1,0,0.1,0,0.2,0
		C56.9,18.5,57.8,21,56.8,23.9z"/>
	<path class="st0" d="M12.9,20.6c-0.8-2.6-2.6-4.8-5-6.1c-1.3-0.6-2.7-0.7-4.1-0.3c-3.4,1.3-4.8,6.2-3.1,11c0.8,2.6,2.6,4.8,5,6.1
		c0.8,0.4,1.6,0.6,2.4,0.6c0.6,0,1.1-0.1,1.7-0.3C13.2,30.3,14.6,25.4,12.9,20.6z M8.4,27.8c-0.3,0.1-0.6,0-0.9-0.2
		c-1.4-0.8-2.4-2.2-2.9-3.7c-1-3-0.2-5.4,0.7-5.7c0.1,0,0.1,0,0.2,0c0.2,0,0.4,0.1,0.7,0.2C7.5,19.1,8.5,20.4,9,22
		C10,24.9,9.2,27.4,8.4,27.8z"/>
</g>
</svg>
