<?xml version="1.0" encoding="utf-8"?>
<!-- Generator: Adobe Illustrator 24.1.2, SVG Export Plug-In . SVG Version: 6.00 Build 0)  -->
<svg version="1.1" id="Capa_1" xmlns="http://www.w3.org/2000/svg" xmlns:xlink="http://www.w3.org/1999/xlink" x="0px" y="0px"
	 viewBox="0 0 53.7 58.8" style="enable-background:new 0 0 53.7 58.8;" xml:space="preserve">
<style type="text/css">
	.st0{fill:#FFFFFF;}
</style>
<g>
	<path class="st0" d="M49.9,57l-6-42.3v-1.4V1.5c0-0.9-0.7-1.6-1.6-1.6H11.4c-0.9,0-1.6,0.7-1.6,1.6v11.6c0,0,0,0.1,0,0.1L3.8,57
		c0,0,0,0.1,0,0.1c0,0,0,0.1,0,0.1c0,0,0,0,0,0.1c0,0.1,0,0.1,0,0.2c0,0.1,0,0.1,0,0.2c0,0,0,0.1,0,0.1c0,0.1,0,0.1,0.1,0.2
		c0,0,0,0,0,0.1c0,0.1,0.1,0.1,0.1,0.2c0,0,0,0,0,0c0.1,0.1,0.1,0.1,0.2,0.2c0,0,0,0,0,0c0.1,0.1,0.1,0.1,0.2,0.2c0,0,0,0,0,0
		c0.1,0,0.2,0.1,0.3,0.1c0,0,0,0,0,0c0.1,0,0.2,0.1,0.3,0.1c0,0,0,0,0,0c0,0,0,0,0,0c0.1,0,0.1,0,0.2,0h30.9h5.9h6
		c0.5,0,0.9-0.2,1.2-0.5C49.8,57.9,49.9,57.4,49.9,57z M40.7,3.1v1.7H13V3.1H40.7z M13,13.6c0-0.2,0-0.4,0-0.5V8h27.7v5.2v1.4
		l-5.7,41H7.3L13,13.6z M38.2,55.6l2.5-17.9v17.9H38.2z M43.9,55.6V37.5l2.6,18.1H43.9z"/>
	<path class="st0" d="M11.4,49.3c0.3,0.3,0.7,0.5,1.2,0.5h18.6c0.8,0,1.5-0.6,1.6-1.4l2.9-22.1c0.1-0.5-0.1-0.9-0.4-1.3
		c-0.3-0.3-0.7-0.5-1.2-0.5H15.6c-0.8,0-1.5,0.6-1.6,1.4l-2.9,22.1C11,48.5,11.1,49,11.4,49.3z M17,27.8h15.4l-2.5,18.9H14.5
		L17,27.8z"/>
	<path class="st0" d="M17.3,14.8h19.2c0.9,0,1.6-0.7,1.6-1.6c0-0.9-0.7-1.6-1.6-1.6H17.3c-0.9,0-1.6,0.7-1.6,1.6
		C15.7,14.1,16.4,14.8,17.3,14.8z"/>
</g>
</svg>
