<?xml version="1.0" encoding="utf-8"?>
<!-- Generator: Adobe Illustrator 24.1.2, SVG Export Plug-In . SVG Version: 6.00 Build 0)  -->
<svg version="1.1" id="Capa_1" xmlns="http://www.w3.org/2000/svg" xmlns:xlink="http://www.w3.org/1999/xlink" x="0px" y="0px"
	 viewBox="0 0 60.6 50.2" style="enable-background:new 0 0 60.6 50.2;" xml:space="preserve">
<style type="text/css">
	.st0{fill:#4CB622;}
</style>
<g>
	<path class="st0" d="M58.1,9.2c-1.5-1.6-3.7-2.5-5.9-2.5h-7C44.6,2.5,42.1,0,38.3,0H22.2c-3.8,0-6.3,2.5-6.9,6.7H8.4
		C6.2,6.7,4,7.6,2.5,9.2C0.9,10.8,0,12.9,0,15.1v26.7c0,2.2,0.9,4.4,2.5,5.9c1.6,1.6,3.7,2.5,5.9,2.5h43.8c2.2,0,4.4-0.9,5.9-2.5
		c1.6-1.6,2.5-3.7,2.5-5.9V15.1C60.6,12.9,59.7,10.7,58.1,9.2z M56.6,41.9L56.6,41.9c-0.1,1.1-0.6,2.2-1.4,3s-1.9,1.3-3,1.2H8.4
		c-1.1,0-2.2-0.5-3-1.3c-0.8-0.8-1.3-1.9-1.2-3V15.1c0-1.1,0.5-2.2,1.3-3c0.8-0.8,1.9-1.3,3-1.2h8.8c1.1,0,2.1-0.9,2.1-2.1V8.6
		c0-2.1,0.5-4.5,2.9-4.5h16.1c1.9,0,2.9,1.5,2.9,4.5v0.1c0,1.1,0.9,2.1,2.1,2.1h8.9c1.1,0,2.2,0.4,3,1.2l0.1,0.1
		c0.8,0.8,1.3,1.9,1.2,3V41.9z"/>
	<path class="st0" d="M30.3,16.2c-3.3,0-6.4,1.3-8.8,3.6c-2.3,2.3-3.6,5.5-3.6,8.7c0,3.3,1.3,6.4,3.6,8.8c2.3,2.3,5.5,3.6,8.7,3.6
		c3.3,0,6.4-1.3,8.7-3.6c2.4-2.3,3.7-5.5,3.6-8.8c0-3.3-1.3-6.4-3.6-8.7C36.7,17.5,33.6,16.2,30.3,16.2z M36.1,34.3
		c-3.2,3.2-8.5,3.2-11.7,0c-1.5-1.5-2.4-3.6-2.4-5.8s0.9-4.3,2.4-5.9c1.5-1.5,3.6-2.4,5.8-2.4s4.3,0.9,5.9,2.4
		c1.5,1.5,2.4,3.6,2.4,5.8C38.6,30.7,37.7,32.8,36.1,34.3z"/>
	<path class="st0" d="M49.4,14.1c-2.1,0-3.7,1.7-3.7,3.7c0,2.1,1.7,3.7,3.7,3.7c2.1,0,3.7-1.7,3.7-3.7S51.5,14.1,49.4,14.1z
		 M49.4,19.4c-0.8,0-1.5-0.7-1.5-1.5s0.7-1.5,1.5-1.5c0.8,0,1.5,0.7,1.5,1.5S50.2,19.4,49.4,19.4z"/>
</g>
</svg>
