<svg xmlns="http://www.w3.org/2000/svg" viewBox="0 0 60 60"><defs><style>.cls-1{fill:#122e5c;}</style></defs><g id="Layer_2" data-name="Layer 2"><g id="Layer_1-2" data-name="Layer 1"><path class="cls-1" d="M37.85,60H22.15a3.7,3.7,0,0,1-3.7-3.69V41.55H3.69A3.7,3.7,0,0,1,0,37.85V22.15a3.7,3.7,0,0,1,3.69-3.7H18.45V3.69A3.7,3.7,0,0,1,22.15,0h15.7a3.7,3.7,0,0,1,3.7,3.69V18.45H56.31A3.7,3.7,0,0,1,60,22.15v15.7a3.7,3.7,0,0,1-3.69,3.7H41.55V56.31A3.7,3.7,0,0,1,37.85,60ZM23.07,55.38H36.93V39.24a2.3,2.3,0,0,1,2.31-2.31H55.38V23.07H39.24a2.3,2.3,0,0,1-2.31-2.31V4.62H23.07V20.76a2.3,2.3,0,0,1-2.31,2.31H4.62V36.93H20.76a2.3,2.3,0,0,1,2.31,2.31ZM56.31,23.07Z"/></g></g></svg>