<svg xmlns="http://www.w3.org/2000/svg" viewBox="0 0 57.01 44.56"><defs><style>.cls-1{fill:#122e5c;}</style></defs><g id="Layer_2" data-name="Layer 2"><g id="Layer_1-2" data-name="Layer 1"><path class="cls-1" d="M4.13,44.56a4.19,4.19,0,0,1-1.52-.29A4.13,4.13,0,0,1,0,39.93,36.82,36.82,0,0,1,32.49,7.8V6.47C32.49,2,35.33,0,38,0a6.74,6.74,0,0,1,4.77,2.22L54.47,14a8.67,8.67,0,0,1,0,12.25L42.75,37.93A6.74,6.74,0,0,1,38,40.15a5.27,5.27,0,0,1-4.53-2.6,7.41,7.41,0,0,1-1-3.87V31.91a27,27,0,0,0-3.1-.18A27.27,27.27,0,0,0,7.47,42.87,4.15,4.15,0,0,1,4.13,44.56ZM38,4.13c-.84,0-1.36.9-1.36,2.34V9.7a2.07,2.07,0,0,1-1.95,2.06A32.7,32.7,0,0,0,4.13,40.43,31.45,31.45,0,0,1,29.39,27.6a32.2,32.2,0,0,1,5.53.49,2.08,2.08,0,0,1,1.7,2v3.55A3.49,3.49,0,0,0,37,35.42a1.11,1.11,0,0,0,1,.6,3,3,0,0,0,1.85-1L51.55,23.28a4.53,4.53,0,0,0,0-6.41L39.83,5.14A3,3,0,0,0,38,4.13Z"/></g></g></svg>