<?xml version="1.0" encoding="utf-8"?>
<!-- Generator: Adobe Illustrator 24.1.2, SVG Export Plug-In . SVG Version: 6.00 Build 0)  -->
<svg version="1.1" id="Capa_1" xmlns="http://www.w3.org/2000/svg" xmlns:xlink="http://www.w3.org/1999/xlink" x="0px" y="0px"
	 viewBox="0 0 57 44.6" style="enable-background:new 0 0 57 44.6;" xml:space="preserve">
<style type="text/css">
	.st0{fill:#4CB622;}
</style>
<path class="st0" d="M57,39.9C54.9,23,41.5,9.7,24.5,7.8V6.5C24.5,2,21.7,0,19,0c-1.8,0.1-3.5,0.9-4.7,2.2L2.5,14
	c-3.3,3.4-3.3,8.8,0,12.2l11.7,11.7c1.2,1.4,2.9,2.2,4.8,2.2c1.9,0,3.6-1,4.5-2.6c0.7-1.2,1-2.5,1-3.9v-1.8c1-0.1,2.1-0.2,3.1-0.2
	c8.7,0,16.8,4.2,21.9,11.1c0.8,1.1,2,1.7,3.3,1.7h0c0.2,0,0.3,0,0.5,0C55.7,44.3,57.3,42.2,57,39.9z M27.6,27.6L27.6,27.6
	c-1.9,0.1-3.7,0.2-5.5,0.6c-1,0.2-1.7,1-1.7,2v3.5c0,0.6-0.1,1.2-0.4,1.7c-0.2,0.4-0.6,0.6-1,0.6c-0.7-0.1-1.4-0.5-1.8-1L5.5,23.3
	c0,0,0,0,0,0c-1.8-1.8-1.8-4.6,0-6.4L17.2,5.1c0.5-0.5,1.1-0.9,1.8-1c0.8,0,1.4,0.9,1.4,2.3v3.2c0,1.1,0.8,2,1.9,2.1
	c15.8,0.9,28.6,13,30.5,28.7C47,32.4,37.6,27.6,27.6,27.6z"/>
</svg>
