<?xml version="1.0" encoding="utf-8"?>
<!-- Generator: Adobe Illustrator 24.1.2, SVG Export Plug-In . SVG Version: 6.00 Build 0)  -->
<svg version="1.1" id="Capa_1" xmlns="http://www.w3.org/2000/svg" xmlns:xlink="http://www.w3.org/1999/xlink" x="0px" y="0px"
	 viewBox="0 0 60 60" style="enable-background:new 0 0 60 60;" xml:space="preserve">
<style type="text/css">
	.st0{fill:#4CB622;}
</style>
<path class="st0" d="M56.4,18.5H41.6V3.7c0-2-1.7-3.7-3.7-3.7H22.2c-2,0-3.7,1.7-3.7,3.7v14.7H3.7c-2,0-3.7,1.7-3.7,3.7v15.7
	c0,2,1.7,3.7,3.7,3.7h14.7v14.8c0,2,1.7,3.7,3.7,3.7h15.7c2.1,0,3.7-1.7,3.7-3.6V41.6h14.9c2,0,3.7-1.7,3.7-3.7V22.2
	C60.1,20.2,58.4,18.5,56.4,18.5z M55.4,36.9H39.3c-1.3,0-2.3,1-2.3,2.3v16.2H23.1H23V39.2c0-1.3-1-2.3-2.3-2.3H4.6V23h16.2
	c1.3,0,2.3-1,2.3-2.3V4.6h13.8v16.2c0,1.3,1,2.3,2.3,2.3h16.2V36.9z"/>
</svg>
