<?xml version="1.0" encoding="utf-8"?>
<!-- Generator: Adobe Illustrator 24.1.2, SVG Export Plug-In . SVG Version: 6.00 Build 0)  -->
<svg version="1.1" id="Capa_1" xmlns="http://www.w3.org/2000/svg" xmlns:xlink="http://www.w3.org/1999/xlink" x="0px" y="0px"
	 viewBox="0 0 59.2 59.2" style="enable-background:new 0 0 59.2 59.2;" xml:space="preserve">
<style type="text/css">
	.st0{fill:#5B98B4;}
</style>
<path class="st0" d="M56,19.7l-15.9-2.4L33,2.1c-0.4-0.7-0.9-1.3-1.6-1.6c-1.9-1-4.2-0.2-5.2,1.6l-7.1,15.2L3.2,19.7
	c-0.8,0.1-1.5,0.5-2.1,1c-1.5,1.5-1.5,3.9-0.1,5.4L12.7,38L9.9,54.8c-0.1,0.8,0,1.7,0.4,2.4c1,1.8,3.3,2.5,5.1,1.5l14.1-7.8
	l14.1,7.8c0.6,0.3,1.2,0.5,1.8,0.5c0.2,0,0.4,0,0.6-0.1c2.1-0.3,3.5-2.3,3.1-4.3L46.6,38l11.6-11.9c0.6-0.6,0.9-1.3,1-2.1
	C59.5,22,58.1,20,56,19.7z M42.9,35.9c-0.5,0.5-0.7,1.1-0.6,1.8l2.8,17.1l-14.5-8c-0.3-0.2-0.7-0.3-1-0.3c-0.4,0-0.7,0.1-1,0.3
	l-14.5,8l2.8-17.2c0.1-0.6-0.1-1.3-0.6-1.8L4.5,23.7l16.3-2.5c0.7-0.1,1.3-0.5,1.6-1.2l7.3-15.5L36.9,20c0.3,0.6,0.9,1.1,1.6,1.2
	l16.3,2.5L42.9,35.9z"/>
</svg>
