<?xml version="1.0" encoding="utf-8"?>
<!-- Generator: Adobe Illustrator 24.1.2, SVG Export Plug-In . SVG Version: 6.00 Build 0)  -->
<svg version="1.1" id="Capa_1" xmlns="http://www.w3.org/2000/svg" xmlns:xlink="http://www.w3.org/1999/xlink" x="0px" y="0px"
	 viewBox="0 0 46.5 45.7" style="enable-background:new 0 0 46.5 45.7;" xml:space="preserve">
<style type="text/css">
	.st0{fill:#122E5C;}
</style>
<path class="st0" d="M45.4,21.1L3,0.2C2.5,0,1.9-0.1,1.4,0.1C0.3,0.5-0.3,1.6,0.1,2.7l5.5,16.5c0.2,0.6,0.7,1.1,1.3,1.3l6.9,2.5
	l-6.9,2.5c-0.6,0.2-1.1,0.7-1.3,1.3L0.1,43c-0.3,0.8,0,1.7,0.6,2.2c0.4,0.3,0.9,0.5,1.4,0.5c0.3,0,0.6-0.1,0.9-0.2l42.4-20.7
	c0.4-0.2,0.7-0.5,0.9-0.9C46.8,22.9,46.4,21.6,45.4,21.1z M5.6,39.6L9.2,29l11.4-4c0.6-0.2,1-0.7,1.2-1.2c0.4-1.1-0.2-2.3-1.2-2.7
	L9.2,17L5.6,6.1L39.8,23L5.6,39.6z"/>
</svg>
