<?xml version="1.0" encoding="utf-8"?>
<!-- Generator: Adobe Illustrator 24.1.2, SVG Export Plug-In . SVG Version: 6.00 Build 0)  -->
<svg version="1.1" id="Capa_1" xmlns="http://www.w3.org/2000/svg" xmlns:xlink="http://www.w3.org/1999/xlink" x="0px" y="0px"
	 viewBox="0 0 45.4 53.5" style="enable-background:new 0 0 45.4 53.5;" xml:space="preserve">
<style type="text/css">
	.st0{fill:#122E5C;}
</style>
<g>
	<path class="st0" d="M43.4,16.3H32.5c-0.1,0-0.2,0-0.3,0c-1.1,0.1-2,1.1-1.9,2.2c0.1,1.1,1.1,2,2.2,1.9h8.8v28.9H4.1V20.5h8.6
		c1-0.1,1.8-0.9,1.9-1.9c0.1-1.1-0.8-2.1-1.9-2.2H2.1c0,0,0,0,0,0c-1.1,0-2.1,0.9-2.1,2.1v33c0,1.1,0.9,2.1,2.1,2.1h41.3
		c1.1,0,2.1-0.9,2.1-2.1v-33c0,0,0,0,0,0C45.4,17.2,44.5,16.3,43.4,16.3z"/>
	<path class="st0" d="M16.8,10.9l3.8-3.8v27.1c0,1.1,0.9,2.1,2.1,2.1c1.1,0,2.1-0.9,2.1-2.1V7.1l3.8,3.8c0.4,0.4,0.9,0.6,1.5,0.6
		c0.5,0,1.1-0.2,1.5-0.6c0.8-0.8,0.8-2.1,0-2.9l-7.4-7.4C24.1,0.5,24,0.5,24,0.4c0,0-0.1,0-0.1-0.1c-0.1,0-0.1-0.1-0.2-0.1
		c0,0-0.1-0.1-0.1-0.1c-0.1,0-0.1,0-0.2-0.1c-0.1,0-0.1,0-0.2-0.1c-0.1,0-0.2,0-0.3,0c0,0-0.1,0-0.1,0c0,0,0,0-0.1,0
		c-0.1,0-0.2,0-0.3,0c-0.1,0-0.1,0-0.2,0.1c-0.1,0-0.1,0-0.2,0.1c-0.1,0-0.1,0.1-0.1,0.1c-0.1,0-0.1,0.1-0.2,0.1c0,0-0.1,0-0.1,0.1
		c-0.1,0.1-0.2,0.1-0.2,0.2L13.9,8c-0.7,0.8-0.7,2,0,2.8C14.7,11.6,16,11.7,16.8,10.9z"/>
</g>
</svg>
