<?xml version="1.0" encoding="utf-8"?>
<!-- Generator: Adobe Illustrator 24.1.2, SVG Export Plug-In . SVG Version: 6.00 Build 0)  -->
<svg version="1.1" id="Capa_1" xmlns="http://www.w3.org/2000/svg" xmlns:xlink="http://www.w3.org/1999/xlink" x="0px" y="0px"
	 viewBox="0 0 51.9 51.9" style="enable-background:new 0 0 51.9 51.9;" xml:space="preserve">
<style type="text/css">
	.st0{fill:#122E5C;}
</style>
<g>
	<path class="st0" d="M35.5,21.8c-0.1-1.1-1.1-2-2.2-1.9H24v-9.3c-0.1-1-0.9-1.8-1.9-1.9c-1.1-0.1-2.1,0.8-2.2,1.9v9.3h-9.3
		c-1,0.1-1.8,0.9-1.9,1.9c-0.1,1.1,0.8,2.1,1.9,2.2h9.3v9.3c0,0,0,0,0,0c0,1.1,0.9,2.1,2.1,2.1c1.1,0,2.1-0.9,2.1-2.1V24h9.3
		c0.1,0,0.2,0,0.3,0C34.7,23.9,35.6,22.9,35.5,21.8z"/>
	<path class="st0" d="M51.3,48.4L38.8,35.9c3.1-3.8,5-8.7,5.1-14C43.9,9.8,34,0,21.9,0S0,9.8,0,21.9s9.8,21.9,21.9,21.9
		c5.3,0,10.2-1.9,14-5.1l12.5,12.5c0.4,0.4,0.9,0.6,1.5,0.6c0.6,0,1.1-0.2,1.5-0.6C52.1,50.5,52.1,49.2,51.3,48.4z M4.1,21.9
		c0-9.8,8-17.8,17.8-17.8c9.8,0,17.8,8,17.8,17.8c0,9.8-8,17.8-17.8,17.8S4.1,31.8,4.1,21.9z"/>
</g>
</svg>
